<?xml version="1.0" encoding="utf-8"?>
<!-- Generator: Adobe Illustrator 28.2.0, SVG Export Plug-In . SVG Version: 6.00 Build 0)  -->
<svg version="1.1" id="Layer_2_00000058572496158715531520000016430204955210295955_"
	 xmlns="http://www.w3.org/2000/svg" xmlns:xlink="http://www.w3.org/1999/xlink" x="0px" y="0px" viewBox="0 0 793.7 455.4"
	 style="enable-background:new 0 0 793.7 455.4;" xml:space="preserve">
<style type="text/css">
	.st0{fill:#32422D;stroke:#000000;stroke-miterlimit:10;}
	.st1{fill:#32422D;stroke:#FFFFFF;stroke-miterlimit:10;}
	.st2{fill:#C7C3A3;stroke:#FFFFFF;stroke-width:0.4;stroke-miterlimit:10;}
	.st3{fill:#F4F3DB;stroke:#FFFFFF;stroke-width:0.4;stroke-miterlimit:10;}
	.st4{fill:#C7C3A3;stroke:#FFFFFD;stroke-width:0.4;stroke-miterlimit:10;}
	.st5{fill:#C7C3A3;stroke:#FCFCF7;stroke-width:0.4;stroke-miterlimit:10;}
	.st6{fill:#C7C3A3;stroke:#F9F9F9;stroke-width:0.4;stroke-miterlimit:10;}
	.st7{fill:#C7C3A3;stroke:#FDFFFD;stroke-width:0.4;stroke-miterlimit:10;}
	.st8{fill:#C7C3A3;stroke:#FFFFFF;stroke-miterlimit:10;}
	.st9{fill:#32422D;stroke:#C7C3A3;stroke-miterlimit:10;}
	.st10{fill:#32422D;stroke:#1C1C1C;stroke-miterlimit:10;}
	.st11{fill:#F4F3DB;stroke:#32422D;stroke-miterlimit:10;}
	.st12{fill:#32422D;stroke:#131412;stroke-miterlimit:10;}
	.st13{fill:#32422D;stroke:#070707;stroke-miterlimit:10;}
	.st14{fill:#F4F3DB;stroke:#0F0F0E;stroke-miterlimit:10;}
	.st15{fill:#32422D;stroke:#0C0C0C;stroke-miterlimit:10;}
</style>
<path class="st0" d="M158.8,389.5c7.8,4.9,9.8,4.9,9.8,4.9l2-1l3.9,1l4.9,2h4.9l3.9,1l2.9,1l2,3l2.9,1h2v2l2,2l2,3l1,3l1,3l2,2
	l2.9,3l2,1l1,3l2,3l1,2l1,2l2,1v2l2,3.9l2.9,3c5.9,3,1,3,5.9,3h4.9l4.9-1h10.8l5.9,1l4.9,1l2.9,1h3.9l1,2h6.9l4.9,1H304l4.9-1h6.9
	l2-2l1-1l2-3l2-2l2-1l2.9-2h2.9l1,1l2.9,3.9l4.9,2h8.8l6.9-1v-2l-1-3l2,2l1-1l2-1v-2l-1-2l-2-1l-1-3l-2-1v-3l-1-5.9l-1-2l-1-3l-1-2
	l-1-1l-2-1h-2l-1,2l-1,1l-2-1l-1-1h-1l-1,1h-2l-1-1l-1-2l-1-1h-1l-1,1l-1,1h-2.9l-1,1l-1,1l-1-1h-2l-1,1l-1,1v9.8h-2.9l-1-3.9v-3
	l-2-2l-2-1v-1l-3.9-2h-2l-1-1h-2l-3.9-1h-8.8l-1-3l-1-1l-2-2l-1-2l-2-1l-1,1l-2,1h-2l-1,1l-1,2l-2,1l-1,1h-16.7l-2-1l-2,1l-1-1
	l-2.9-2l-4.9-3l-4.9-3.9l-5.9-3.9l-7.8-5.9l-2-3l-3.9-3.9l-2-2l-2.9-2l-2-3l-2.9-1l-2.9-1l-2.9-2l-3.9-1l-2.9,1l-2,1l-1-1l-4.9-2h-2
	l-1-1l-2-1l-1-1l-2-2l-1-1h-2l-2-2l-4.9-4.9l-2-2h-2v-2l-3.9-7.9l-2.9-4.9l-1-3l-1-3.9l1-3.9l-1-3.9l-2,1l-1,3.9v3.9l-2,2l-1,1l-1,3
	l1,3.9v4.9l-1,2l0.1,6.7v8.5l-0.1,6.3l0.3,3.4l0.1,3.7l0.6,2.9l2.9-1h2.9L158.8,389.5L158.8,389.5z"/>
<polyline class="st1" points="153.9,345.2 155.9,344.2 156.9,342.3 158.8,341.3 159.8,342.3 159.8,344.2 159.8,346.2 158.8,349.1 
	158.8,351.1 158.8,355 158.8,358 159.8,361.9 160.8,364.9 161.8,366.9 163.7,368.8 167.6,369.8 169.6,371.8 172.6,371.8 
	175.5,372.8 178.4,370.8 180.4,369.8 183.3,368.8 184.3,368.8 189.2,369.8 191.2,370.8 195.1,370.8 198.3,369.7 200,368.8 
	191.9,364.9 186.1,362.9 181.4,362.9 178.4,361.9 "/>
<polyline class="st2" points="97,118.9 94.6,118.4 91.6,118.4 89.7,118.4 86.7,119.4 83.8,120.4 81.8,122.3 78.9,123.3 76.9,126.3 
	75,130.2 73,133.1 73,136.1 71,136.1 71,139 69.1,142 67.1,145.9 66.1,149.9 64.2,153.8 63.2,157.7 60.3,160.7 57.3,163.7 
	54.4,166.6 53.4,164.6 55.4,161.7 58.3,160.7 61.2,157.7 63.4,152.1 64.2,149.9 65.2,145.9 66.1,144 67.1,142 67.1,141 67.1,138.1 
	67.1,137.1 68.1,135.1 70.1,135.1 71,134.1 73,131.2 74,128.2 75,126.3 75.9,123.3 77.9,122.3 80.9,121.3 81.8,120.4 84.8,119.4 
	86.7,117.4 87.7,116.4 88.2,114 91.6,114.3 94.1,114.9 96.1,117 97,118.9 "/>
<polygon class="st3" points="61.2,151.8 59.3,150.9 58.3,147.9 56.3,147.9 55.4,146.9 54.4,145.9 53.4,145 53.4,146.9 54.4,147.9 
	56.3,148.9 59.3,152.8 61.2,154.8 61.2,157.7 62.4,156 64.3,152.4 "/>
<polygon class="st4" points="108.3,30.8 107.3,32.8 107.3,34.7 107.3,35.7 107.3,37.7 106.4,38.7 105.4,39.7 102.4,40.6 99.5,41.6 
	98.5,41.6 96.5,42.6 94.6,42.6 94.2,43 93.2,44 92.6,44.6 91.6,45.6 90.7,46.5 89.7,48.5 88.6,49.6 87.7,50.5 86.7,52.5 86.1,53.4 
	84.9,55.3 84.8,55.4 84.3,55.9 82.8,57.4 80.9,59.3 77.9,59.3 77.9,60.3 79.9,60.3 81.8,59.3 83.8,58.4 84.8,57.4 85.8,55.4 
	87.7,52.5 89.7,49.5 91.6,48.5 92.6,46.5 94.6,44.6 96.5,43.6 98.5,42.6 102.4,41.6 105.4,40.6 107.3,39.7 108.3,37.7 109.3,35.7 
	108.3,33.8 109.3,32.8 "/>
<polygon class="st5" points="121.1,62.3 120.1,64.3 119.1,68.2 117.1,70.2 115.2,73.1 114.2,74.1 112.2,75.1 112.2,77.1 111.3,80 
	110.3,81 108.3,85.9 107.9,86.7 107.3,87.9 106.8,88.9 106.4,89.8 103.4,91.8 102.4,89.8 100.8,88.3 100.5,87.9 98.5,87.9 
	97.5,87.9 97.5,88.9 99.5,88.9 101.4,89.8 101.4,90.8 102.4,92.8 104.4,92.8 106.4,91.8 108.3,87.9 109.3,86.9 110.3,84.9 110.3,83 
	111.3,82 113.2,80 113.2,78 113.2,76.1 113.7,75.6 114.2,75.1 116.2,74.1 117.1,73.1 118.1,70.2 119.1,70.2 120.1,69.2 120.1,67.2 
	121.1,65.2 121.1,63.3 122,64.3 122,62.3 122,60.3 "/>
<polyline class="st6" points="78.9,61.3 78.9,63.3 77.9,64.3 77.1,65.1 76.9,65.2 76.9,68.2 77.9,69.2 78.9,71.1 78.9,69.2 
	77.9,68.2 77.9,66.2 78.9,64.3 79.9,63.3 78.4,59.8 77.9,57.4 76.9,55.4 75.9,53.4 73.7,54.2 73,54.4 71.3,53.7 70.3,53.4 
	68.1,52.5 68.1,53.4 69.1,54.4 71,54.4 72,55.4 74,55.4 75,54.4 75.9,55.4 76.9,57.4 76.9,58.4 "/>
<polygon class="st2" points="119.1,48.5 116.2,48.5 114.2,48.5 113.2,47.5 111.3,47.5 109.3,46.5 107.3,46.5 104.4,45.6 103.7,44.6 
	102.4,43.6 99.5,42.6 98.5,42.6 95.6,40.6 93.6,39.7 90.7,39.7 88.7,38.7 85.8,38.7 83.8,40.6 80.9,40.6 78.9,38.7 77.9,37.7 
	75.9,36.7 71,37.7 68.1,38.7 63.2,39.7 59.3,40.6 59.3,39.7 64.2,38.7 68.1,37.7 71,36.7 73,35.7 75.9,35.7 77.9,35.7 79.9,37.7 
	81.8,37.7 83.8,37.7 86.7,37.7 88.7,37.7 91.6,37.7 93.6,38.7 96.5,39.7 99.5,40.6 101.4,41.6 104.1,42.7 105.4,43.6 108.3,44.6 
	110.3,45.6 113.2,46.5 115.2,47.5 118.1,47.5 119.4,47.4 "/>
<polygon class="st2" points="123,71.1 119.1,71.1 115.2,71.1 113.2,72.1 109.3,71.1 108.3,72.1 105.4,72.1 100.5,72.1 96.5,72.1 
	94.6,74.1 93.6,72.1 91.6,71.1 88.7,71.1 86.6,71.4 88.7,69.2 87.7,67.2 86.6,67.3 89.7,68.2 89.7,70.2 91.6,70.2 94.6,71.1 
	97.5,71.1 99.5,70.2 101.4,70.2 103.4,70.2 107.3,71.1 112.2,71.1 115.2,70.2 117.1,70.2 120.1,70.2 122,68.2 123,69.2 "/>
<polyline class="st7" points="151.3,74 154.2,70.1 160.1,72.1 169.9,73.1 178.7,75.1 184.6,75.1 191.5,76.1 196.4,77 204.2,79 
	212,81 218.9,80 222.8,80 218.9,75.1 210.1,75.1 202.2,75.1 196.4,73.1 200.3,71.1 204.2,66.2 208.1,61.3 211.1,60.3 210.1,56.4 
	204.2,58.3 200.3,64.2 196.4,68.2 196.4,60.3 195.4,55.4 199.3,46.5 197.3,39.6 195.4,33.7 195.4,23.9 192.4,28.8 192.4,34.7 
	193.2,37.1 194.4,40.6 188.5,37.7 182.6,32.8 175.7,32 173.8,31.8 166.9,32.8 166.9,36.7 179.7,34.7 183.6,37.7 187.5,40.6 
	195.4,44.6 192.4,50.5 192.4,59.3 188.5,65.2 178.7,67.2 172.8,66.2 166,68.2 157.1,64.2 149.8,65.7 151.3,74 151.3,74 "/>
<polyline class="st8" points="272.6,99.2 284.9,94.8 297.6,89.8 307.4,85.9 314.3,85.9 330,73.1 341.7,67.2 350.6,64.3 360.4,59.3 
	369.2,54.4 381,51.5 391.8,48.5 398.6,44.6 407.4,42.6 410.7,37.8 413.3,33.8 430.5,24.7 432,23.9 412.4,40.6 421.2,38.7 
	427.7,38.7 432.9,38.7 439.8,44.6 446.7,51.5 443.7,53.4 435.9,45.6 430,42.6 423.1,42.6 414.3,45.6 406.5,46.5 419.2,51.5 
	427.1,53.4 432.9,55.4 438.8,58.4 441.8,64.3 437.9,66.2 432,58.4 423.1,57.4 411.4,54.4 406.5,51.5 400.6,50.5 394.7,54.4 
	395.7,62.3 406.5,72.1 413.3,72.1 419.2,76.1 419.2,83.9 424.1,87.9 423.1,90.8 419.2,87.9 414.3,80 407.4,75.1 400.6,74.1 
	393.7,68.2 391.8,62.3 387.8,59.3 380,63.3 368.2,65.2 373.1,72.1 381,74.1 386.9,79 394.7,83 400.6,85.9 396.7,88.9 390.8,85.9 
	382.9,82 377,76.1 369.2,74.1 364.3,66.2 358.4,66.2 353.5,69.2 347.6,76.1 337.8,75.1 331.9,78 326,83 319.2,87.9 314.3,90.8 
	324.1,95.8 329,102.6 335.9,105.6 341.7,106.8 331.9,109.5 326,104.6 321.1,99.7 315.3,94.8 307.4,92.8 301.5,91.8 293.7,95.8 
	284.9,99.7 275,104.6 269.2,108.5 276,112.5 283.9,118.4 276,118.4 269.2,114.4 264.3,112.5 256.5,114.4 252,114.9 272.6,99.2 
	272.6,99.2 "/>
<polygon class="st9" points="99,385.6 100,342.3 102.9,298 101.9,274.4 102.9,245.8 105.9,220.2 108.8,196.6 112.7,183.8 
	118.6,166.1 121.6,158.2 122.5,151.3 125.5,134.6 123.5,118.9 113.7,119.9 103.9,121.8 97,118.9 94.1,114.9 88.2,114 81.3,116.9 
	72.5,116.9 67.6,111 47,120.8 30.3,128.7 17.6,127.7 8.8,129.7 8.8,125.8 20.5,122.8 28.4,122.8 31.3,114.9 44.1,111 61.7,105.1 
	55.8,102.1 48,98.2 37.2,101.2 26.4,101.2 17.6,100.2 13.7,95.3 20.5,96.2 26.4,98.2 30.3,98.2 36.2,98.2 42.1,96.2 47,94.3 
	51.9,94.3 56.8,98.2 63.7,102.1 76.4,98.2 82.3,95.3 90.2,93.3 96.1,96.2 101,101.2 108.8,107.1 115.7,105.1 121.6,103.1 
	121.6,95.3 122.5,82.5 123.5,76.6 122.5,68.7 120.6,56.9 118.6,44.1 111.7,34.2 102.9,24.4 92.1,17.5 83.3,14.6 67.6,12.6 
	45.1,11.6 31.3,11.6 16.6,11.6 7.8,12.6 8.3,7 112.7,3.7 120.6,7.7 129.4,9.6 136.3,7.7 145.1,5.7 240.2,6.7 230.4,13.6 209.8,13.6 
	175.5,13.6 169.6,27.4 155.9,34.2 140.2,36.2 148,53.9 151,65.7 153.9,83.5 156.9,94.3 156.9,110 152.9,139.5 153.9,144.5 
	160.8,141.5 172.6,128.7 186.3,115.9 197.1,111 203,110 223.6,96.2 231.4,89.4 218.6,60.8 207.9,40.2 203.9,25.4 205.9,17.5 
	214.7,19.5 221.6,18.5 226.5,16.5 227.5,29.3 231.4,43.1 239.2,58.8 245.1,65.7 252,71.6 261.8,73.6 266.7,73.6 278.5,67.7 
	293.2,60.8 300.1,52 305.9,45.1 311.8,35.2 312.8,23.4 315.7,9.6 338.3,7.7 333.4,22.4 326.5,45.1 317.7,76.6 304,83.5 282.4,89.4 
	266.7,105.1 252,114.9 240.2,133.6 258.9,123.8 270.6,126.7 293.2,119.9 310.8,115.9 327.5,113 355,105.1 366.7,102.1 392.2,111 
	405,115.9 425.6,106.1 430.5,95.3 440.3,82.5 450.1,54.9 450.1,48 453.1,35.2 457,22.4 456,8.7 452.1,5.7 473.6,5.7 466.8,17.5 
	461.9,41.1 461.9,50 471.7,47 480.5,41.1 492.3,32.3 506,27.4 516.8,15.6 521.7,5.7 543.3,6.7 529.6,17.5 524.6,22.4 524.6,27.4 
	538.4,31.3 548.2,33.3 558,38.2 563.9,48 568.8,57.9 578.6,66.7 586.4,69.7 597.2,78.5 600.2,87.4 611,91.3 613.9,98.2 608,100.2 
	604.1,93.3 595.3,86.4 587.4,75.6 573.7,67.7 565.8,61.8 555.1,48 548.2,41.1 542.3,35.2 530.5,34.2 522.7,32.3 515.8,31.3 
	507,31.3 491.3,44.1 475.6,56.9 467.8,62.8 462.9,79.5 458.9,91.3 445.2,107.1 433.4,117.9 428.9,118.8 418.7,120.8 453.1,117.9 
	470.7,114.9 487.4,110 504.1,101.2 521.7,103.1 528.6,105.1 545.2,105.1 555.1,105.1 563.9,103.1 571.7,102.1 580.6,102.1 
	586.4,106.1 601.1,105.1 611,103.1 620.8,104.1 633.5,105.1 647.2,109 662,107.1 674.7,107.1 688.4,105.1 693.3,100.2 707.1,92.3 
	719.8,77.5 726.7,62.8 734.5,48 734.5,40.2 745.3,44.1 758.1,44.1 771.8,37.2 784.5,31.3 778.7,42.1 764,46.1 746.3,51 739.4,52 
	736.5,65.7 723.7,84.4 720.8,89.4 726.7,90.3 744.3,88.4 765.9,88.4 779.6,84.4 781.6,80.5 781.6,94.3 772.8,96.2 761,96.2 
	744.3,96.2 726.7,103.1 710,105.1 698.2,111 685.5,122.8 665.9,123.8 647.2,125.8 627.6,123.8 610,122.8 591.3,121.8 575.6,123.8 
	560.9,127.7 553.1,122.8 541.3,122.8 530.5,122.8 517.8,123.8 507,122.8 489.3,127.7 476.6,136.6 462.9,140.5 449.1,140.5 
	432.5,137.6 418.7,136.6 401.1,142.5 389.3,153.3 368.7,169.1 344.2,158.2 326.5,157.3 312.8,157.3 300.1,156.3 278.5,154.3 
	265.7,163.2 250,169.1 237.3,177.9 225.5,174 209.8,176.9 187.3,176.9 173.5,176 160.8,190.7 160.8,211.4 160.8,226.1 153.9,235 
	153.9,258.6 153.9,273.4 153.9,299 151,328.5 152.9,412.1 148,429.8 97,432.8 89.2,422.9 97,399.3 "/>
<polyline class="st10" points="274.6,406.2 273.6,408.2 274.6,410.2 274.6,412.1 273.6,414.1 272.6,419 270.6,425.9 269.6,430.8 
	268.7,435.7 267.7,440.7 267.7,443.6 266.7,445.6 266.7,445.6 "/>
<polyline class="st11" points="282.4,412.1 281.4,416.1 279.5,420 279.5,423.9 278.5,427.9 278.5,433.8 278.5,437.7 277.5,438.7 
	285.3,435.7 287.3,434.8 290.2,433.8 293.2,432.8 295.1,431.8 298.1,431.8 298.1,430.8 296.1,430.8 "/>
<polyline class="st11" points="328.5,429.8 328.5,431.8 329.5,433.8 331.4,434.8 335.4,433.8 336.3,431.8 334.4,429.8 332.4,429.8 
	"/>
<polyline class="st1" points="338.3,419.5 338.3,418 338.3,414.1 337.3,413.1 "/>
<polyline class="st1" points="158.8,379.6 158.8,376.7 159.8,373.7 160.8,371.8 161.8,369.8 162.7,368.8 164.1,368.8 161.5,365.7 
	162.7,363.9 165.7,360 166.7,356 169.6,353.1 169.6,353.1 "/>
<polyline class="st11" points="311.8,447.5 313.8,445.6 315.7,444.6 315.7,441.6 316.7,437.7 315.7,433.8 314.8,430.8 311.8,426.9 
	309.9,422.9 306.9,421 305,418 302,417 297.1,415.1 294.2,415.1 291.2,415.1 286.3,417 284.4,419 281.4,420 280.4,422 279.5,422.7 
	"/>
<polyline class="st11" points="318.7,444.6 318.7,438.7 318.7,433.8 316.7,430.8 313.8,425.9 312.8,423.9 310.8,422 309.9,421 
	307.9,419 307.9,417 307.9,415.1 305,414.1 303,414.1 305.9,412.1 307.9,412.1 309.9,414.1 310.8,416.1 312.8,418 315.9,421 "/>
<polyline class="st1" points="244.1,434.8 245.1,430.8 246.1,426.9 247.1,422.9 248.1,419 249.1,416.1 250,414.1 251,411.1 
	252,409.2 "/>
<polyline class="st11" points="222.6,430.8 222.6,427.9 223.6,423.9 225.5,420 227.5,417 228.5,413.1 229.4,410.2 231.4,408.2 
	232.4,407.2 "/>
<polyline class="st11" points="230.4,415.1 232.4,411.1 234.3,408.2 236.3,406.2 238.3,405.2 240.2,404.2 "/>
<polyline class="st11" points="236.3,430.8 238.3,424.9 240.2,421 242.2,419 244.1,417 245.1,416.1 "/>
<polyline class="st11" points="196.1,399.3 196.1,395.4 197.1,393.4 198.1,390.5 198.1,386.5 201,382.6 202,380.6 201,386.5 
	200,389.5 200.9,394 201,394.4 201,398.3 201,402.3 202,404.2 "/>
<polyline class="st11" points="204.9,385.6 204.9,386.5 205.9,388.5 206.9,389.5 207.9,388.5 208.8,385.6 210.8,383.6 211.8,384.6 
	211.8,385.6 211.8,389.5 211.8,392.4 212.8,394.4 213.7,395.4 213.7,396.4 213.7,399.3 "/>
<polyline class="st1" points="256.9,409.2 257.9,409.2 259.8,409.2 260.8,411.1 262.8,413.1 264.7,415.1 267.7,417 269.6,417 "/>
<polyline class="st1" points="225.5,387.5 226.5,389.5 227.5,391.5 229.4,393.4 231.4,395.4 232.4,397.4 234.3,398.3 236.3,401.3 
	238.3,402.3 239.2,403.3 241.2,404.2 242.2,405.2 244.1,405.2 "/>
<path class="st1" d="M243.2,444.6v-3V444.6z"/>
<polyline class="st12" points="245.1,444.6 245.7,442.7 246.1,444.6 249.1,444.6 249.1,439.7 250,444.6 252,444.6 252.6,442.9 
	253,444.6 254.9,444.6 254.9,443.6 254.9,442.6 255.9,444 255.9,445.6 256.9,445.6 256.9,443.6 257.9,442.6 257.8,444.5 
	258.9,445.6 260.8,446.6 260.8,444.7 260.8,444.7 261.8,445.8 263.8,446.6 263.8,444.6 263.8,443.6 "/>
<polyline class="st13" points="264.7,446.6 266.7,447.5 266.7,445.6 267.7,447.5 269.6,447.5 269.6,446.6 270.2,445.4 270.6,444.6 
	270.6,443.6 271.4,447.5 271.4,447.5 274.6,448.5 276,448.2 275.5,446.6 277.4,448.3 278.5,446.6 278.5,448.6 279.5,449.5 
	281.4,449.5 281.4,447.5 281.4,446.6 282.4,449.5 283.4,450.5 284.4,448.5 284.4,446.6 285.3,447.5 286.3,448.5 287.3,449.5 
	290.2,448.5 291.2,447.5 292.8,449.1 292.8,449.1 295.1,449.5 296.3,448.3 297.1,447.5 299.1,447.5 299.1,449.5 300.1,449.5 
	300.1,447.5 301,446.6 301.2,449.1 303,449.5 303,447.5 304,446.6 305,446.6 304,448.5 304,449.5 305.9,449.5 307.9,449.5 "/>
<polyline class="st1" points="335.4,413.6 335.4,414.6 334.4,415.1 334.4,416.1 335.4,418 "/>
<polygon class="st14" points="327.5,412.1 326.5,413.1 326.5,414.1 327.5,414.1 328.5,412.1 "/>
<polyline class="st1" points="286.3,409.2 285.3,408.2 284.4,410.2 285.3,411.1 286.3,411.1 288.3,412.1 288.3,413.1 287.3,414.1 
	"/>
<polyline class="st15" points="353,445.6 352,444.6 351.7,442.8 351.7,442.8 351.1,444.6 350.1,445.6 348.1,445.6 348.1,443.6 
	347.1,441.6 347.1,444.6 346.1,445.6 345.2,445.6 345,443.8 346.1,441.6 345,443.8 344.2,445.6 343.2,444.6 343.2,442.6 
	342.2,442.6 341.2,445.6 339.3,445.6 338.3,445.6 337.3,444.6 336.3,445.6 335.4,445.6 333.4,443.6 331.4,442.6 333.4,445.6 
	331.4,445.6 329.5,445.6 330.5,443.6 328.5,445.6 325.6,445.6 327.5,444.6 322.6,445.6 322.6,443.6 321.6,445.6 319.7,445.6 
	317.7,445.6 317.7,445.6 "/>
</svg>
