<?xml version="1.0" encoding="UTF-8"?>
<svg id="Layer_2" data-name="Layer 2" xmlns="http://www.w3.org/2000/svg" viewBox="0 0 778.48 448.11">
  <defs>
    <style>
      .cls-1, .cls-2, .cls-3, .cls-4, .cls-5, .cls-6, .cls-7, .cls-8, .cls-9, .cls-10, .cls-11, .cls-12, .cls-13, .cls-14, .cls-15, .cls-16 {
        stroke-miterlimit: 10;
      }

      .cls-1, .cls-4, .cls-11, .cls-13 {
        stroke: #fff;
      }

      .cls-1, .cls-5, .cls-6, .cls-7, .cls-8, .cls-9, .cls-10 {
        fill: #32422d;
      }

      .cls-2 {
        stroke: #0f0f0e;
      }

      .cls-2, .cls-3, .cls-11 {
        fill: #f4f3db;
      }

      .cls-3 {
        stroke: #32422d;
      }

      .cls-4, .cls-12, .cls-13, .cls-14, .cls-15, .cls-16 {
        fill: #c7c3a3;
      }

      .cls-5 {
        stroke: #c7c3a3;
      }

      .cls-6 {
        stroke: #131412;
      }

      .cls-7 {
        stroke: #1c1c1c;
      }

      .cls-8 {
        stroke: #070707;
      }

      .cls-9 {
        stroke: #0c0c0c;
      }

      .cls-10 {
        stroke: #000;
      }

      .cls-11, .cls-12, .cls-13, .cls-14, .cls-15, .cls-16 {
        stroke-width: .4px;
      }

      .cls-12 {
        stroke: #f9f9f9;
      }

      .cls-14 {
        stroke: #fffffd;
      }

      .cls-15 {
        stroke: #fcfcf7;
      }

      .cls-16 {
        stroke: #fdfffd;
      }
    </style>
  </defs>
  <path class="cls-10" d="M151.59,386.25c7.85,4.92,9.81,4.92,9.81,4.92l1.96-.98,3.92.98,4.9,1.97h4.9l3.92.98,2.94.98,1.96,2.95,2.94.98h1.96v1.97l1.96,1.97,1.96,2.95.98,2.95.98,2.95,1.96,1.97,2.94,2.95,1.96.98.98,2.95,1.96,2.95.98,1.97.98,1.97,1.96.98v1.97l1.96,3.94,2.94,2.95c5.88,2.95.98,2.95,5.88,2.95h4.9l4.9-.98h10.79l5.88.98,4.9.98,2.94.98h3.92l.98,1.97h6.87l4.9.98h24.52l4.9-.98h6.87l1.96-1.97.98-.98,1.96-2.95,1.96-1.97,1.96-.98,2.94-1.97h2.94l.98.98,2.94,3.94,4.9,1.97h8.83l6.87-.98v-1.97l-.98-2.95,1.96,1.97.98-.98,1.96-.98v-1.97l-.98-1.97-1.96-.98-.98-2.95-1.96-.98v-2.95l-.98-5.9-.98-1.97-.98-2.95-.98-1.97-.98-.98-1.96-.98h-1.96l-.98,1.97-.98.98-1.96-.98-.98-.98h-.98l-.98.98h-1.96l-.98-.98-.98-1.97-.98-.98h-.98l-.98.98-.98.98h-2.94l-.98.98-.98.98-.98-.98h-1.96l-.98.98-.98.98v9.84h-2.94l-.98-3.94v-2.95l-1.96-1.97-1.96-.98v-.98l-3.92-1.97h-1.96l-.98-.98h-1.96l-3.92-.98h-8.83l-.98-2.95-.98-.98-1.96-1.97-.98-1.97-1.96-.98-.98.98-1.96.98h-1.96l-.98.98-.98,1.97-1.96.98-.98.98h-16.67l-1.96-.98-1.96.98-.98-.98-2.94-1.97-4.9-2.95-4.9-3.94-5.88-3.94-7.85-5.9-1.96-2.95-3.92-3.94-1.96-1.97-2.94-1.97-1.96-2.95-2.94-.98-2.94-.98-2.94-1.97-3.92-.98-2.94.98-1.96.98-.98-.98-4.9-1.97h-1.96l-.98-.98-1.96-.98-.98-.98-1.96-1.97-.98-.98h-1.96l-1.96-1.97-4.9-4.92-1.96-1.97h-1.96v-1.97l-3.92-7.87-2.94-4.92-.98-2.95-.98-3.94.98-3.94-.98-3.94-1.96.98-.98,3.94v3.94l-1.96,1.97-.98.98-.98,2.95.98,3.94v4.92l-.98,1.97.06,6.7v8.49l-.12,6.32.34,3.44.12,3.67.58,2.87,2.94-.98h2.94v9.84h0Z"/>
  <polyline class="cls-1" points="146.69 341.97 148.65 340.98 149.63 339.02 151.59 338.03 152.57 339.02 152.57 340.98 152.57 342.95 151.59 345.9 151.59 347.87 151.59 351.81 151.59 354.76 152.57 358.7 153.55 361.65 154.53 363.62 156.49 365.59 160.42 366.57 162.38 368.54 165.32 368.54 168.26 369.52 171.2 367.55 173.17 366.57 176.11 365.59 177.09 365.59 181.99 366.57 183.95 367.55 187.88 367.55 191.11 366.49 192.78 365.59 184.71 361.63 178.82 359.66 174.15 359.68 171.2 358.7"/>
  <polyline class="cls-13" points="89.8 115.64 87.35 115.15 84.41 115.15 82.45 115.15 79.5 116.13 76.56 117.11 74.6 119.08 71.66 120.07 69.7 123.02 67.73 126.95 65.77 129.91 65.77 132.86 63.81 132.86 63.81 135.81 61.85 138.76 59.89 142.7 58.91 146.63 56.95 150.57 55.96 154.51 53.02 157.46 50.08 160.41 47.14 163.36 46.16 161.4 48.12 158.44 51.06 157.46 54 154.51 56.12 148.86 56.95 146.63 57.93 142.7 58.91 140.73 59.89 138.76 59.89 137.78 59.89 134.83 59.89 133.84 60.87 131.87 62.83 131.87 63.81 130.89 65.77 127.94 66.75 124.99 67.73 123.02 68.71 120.07 70.68 119.08 73.62 118.1 74.6 117.11 77.54 116.13 79.5 114.16 80.48 113.18 80.97 110.72 84.34 111.09 86.86 111.7 88.89 113.77 89.8 115.64"/>
  <polygon class="cls-11" points="54 148.6 52.04 147.62 51.06 144.67 49.1 144.67 48.12 143.68 47.14 142.7 46.16 141.71 46.16 143.68 47.14 144.67 49.1 145.65 52.04 149.59 54 151.56 54 154.51 55.18 152.78 57.06 149.15 54 148.6"/>
  <polygon class="cls-14" points="101.08 27.57 100.1 29.53 100.1 31.5 100.1 32.49 100.1 34.45 99.12 35.44 98.14 36.42 95.19 37.41 92.25 38.39 91.27 38.39 89.31 39.37 87.35 39.37 86.94 39.79 85.97 40.77 85.39 41.34 84.41 42.33 83.43 43.31 82.45 45.28 81.34 46.39 80.48 47.25 79.5 49.21 78.86 50.19 77.62 52.05 77.54 52.17 77.07 52.64 75.58 54.13 73.62 56.1 70.68 56.1 70.68 57.09 72.64 57.09 74.6 56.1 76.56 55.12 77.54 54.13 78.52 52.17 80.48 49.21 82.45 46.26 84.41 45.28 85.39 43.31 87.35 41.34 89.31 40.36 91.27 39.37 95.19 38.39 98.14 37.41 100.1 36.42 101.08 34.45 102.06 32.49 101.08 30.52 102.06 29.53 101.08 27.57"/>
  <polygon class="cls-15" points="113.83 59.05 112.85 61.02 111.87 64.96 109.91 66.93 107.94 69.88 106.96 70.86 105 71.85 105 73.82 104.02 76.77 103.04 77.75 101.08 82.67 100.68 83.48 100.1 84.64 99.59 85.66 99.12 86.61 96.18 88.58 95.19 86.61 93.6 85.01 93.23 84.64 91.27 84.64 90.29 84.64 90.29 85.62 92.25 85.62 94.21 86.61 94.21 87.59 95.19 89.56 97.16 89.56 99.12 88.58 101.08 84.64 102.06 83.66 103.04 81.69 103.04 79.72 104.02 78.74 105.98 76.77 105.98 74.8 105.98 72.83 106.43 72.39 106.96 71.85 108.93 70.86 109.91 69.88 110.89 66.93 111.87 66.93 112.85 65.94 112.85 63.97 113.83 62.01 113.83 60.04 114.81 61.02 114.81 59.05 114.81 57.09 113.83 59.05"/>
  <polyline class="cls-12" points="71.66 58.07 71.66 60.04 70.69 61.01 69.84 61.86 69.7 62.01 69.7 64.96 70.68 65.94 71.66 67.91 71.66 65.94 70.68 64.96 70.68 62.99 71.66 61.02 72.64 60.04 71.19 56.57 70.68 54.13 69.7 52.17 68.71 50.2 66.42 50.98 65.77 51.18 64.05 50.49 63.1 50.12 60.87 49.21 60.87 50.2 61.85 51.18 63.81 51.18 64.79 52.17 66.75 52.17 67.73 51.18 68.71 52.17 69.7 54.13 69.7 55.12"/>
  <polygon class="cls-13" points="111.87 45.28 108.93 45.28 106.96 45.28 105.98 44.29 104.02 44.29 102.06 43.31 100.1 43.31 97.16 42.33 96.44 41.32 95.19 40.36 92.25 39.37 91.27 39.37 88.33 37.41 86.37 36.42 83.43 36.42 81.46 35.44 78.52 35.44 76.56 37.41 73.62 37.41 71.66 35.44 70.68 34.45 68.71 33.47 63.81 34.45 60.87 35.44 55.96 36.42 52.04 37.41 52.04 36.42 56.95 35.44 60.87 34.45 63.81 33.47 65.77 32.49 68.71 32.49 70.68 32.49 72.64 34.45 74.6 34.45 76.56 34.45 79.5 34.45 81.46 34.45 84.41 34.45 86.37 35.44 89.31 36.42 92.25 37.41 94.21 38.39 96.83 39.5 98.14 40.36 101.08 41.34 103.04 42.33 105.98 43.31 107.94 44.29 110.89 44.29 112.12 44.19 111.87 45.28"/>
  <polygon class="cls-13" points="115.79 67.91 111.87 67.91 107.94 67.91 105.98 68.9 102.06 67.91 101.08 68.9 98.14 68.9 93.23 68.9 89.31 68.9 87.35 70.86 86.37 68.9 84.41 67.91 81.46 67.91 79.33 68.12 81.46 65.94 80.48 63.97 79.33 64.09 82.45 64.96 82.45 66.93 84.41 66.93 87.35 67.91 90.29 67.91 92.25 66.93 94.21 66.93 96.18 66.93 100.1 67.91 105 67.91 107.94 66.93 109.91 66.93 112.85 66.93 114.81 64.96 115.79 65.94 115.79 67.91"/>
  <polyline class="cls-16" points="144.08 70.79 146.95 66.91 152.83 68.88 162.64 69.86 171.47 71.83 177.35 71.83 184.22 72.81 189.12 73.8 196.97 75.76 204.81 77.73 211.68 76.75 215.6 76.75 211.68 71.83 202.85 71.83 195.01 71.83 189.12 69.86 193.05 67.89 196.97 62.97 200.89 58.05 203.83 57.07 202.85 53.13 196.97 55.1 193.05 61 189.12 64.94 189.12 57.07 188.14 52.15 192.07 43.29 190.1 36.4 188.14 30.5 188.14 20.66 185.2 25.58 185.2 31.48 185.98 33.84 187.16 37.39 181.28 34.43 175.39 29.51 168.44 28.74 166.57 28.53 159.7 29.51 159.7 33.45 172.45 31.48 176.37 34.43 180.3 37.39 188.14 41.32 185.2 47.23 185.2 56.08 181.28 61.99 171.47 63.96 165.58 62.97 158.72 64.94 149.89 61 142.54 62.48 144.08 70.79 144.08 70.79"/>
  <polyline class="cls-4" points="265.4 95.97 277.62 91.53 290.37 86.61 300.17 82.67 307.04 82.67 322.73 69.88 334.5 63.97 343.33 61.02 353.14 56.1 361.96 51.18 373.73 48.23 384.52 45.28 391.39 41.34 400.21 39.37 403.42 34.56 406.1 30.52 423.25 21.46 424.73 20.68 405.12 37.41 413.94 35.44 420.49 35.44 425.71 35.44 432.58 41.34 439.44 48.23 436.5 50.2 428.65 42.33 422.77 39.37 415.9 39.37 407.08 42.33 399.23 43.31 411.98 48.23 419.83 50.2 425.71 52.17 431.6 55.12 434.54 61.02 430.62 62.99 424.73 55.12 415.9 54.13 404.14 51.18 399.23 48.23 393.35 47.25 387.46 51.18 388.44 59.05 399.23 68.9 406.1 68.9 411.98 72.83 411.98 80.7 416.89 84.64 415.9 87.59 411.98 84.64 407.08 76.77 400.21 71.85 393.35 70.86 386.48 64.96 384.52 59.05 380.6 56.1 372.75 60.04 360.98 62.01 365.89 68.9 373.73 70.86 379.62 75.78 387.46 79.72 393.35 82.67 389.42 85.62 383.54 82.67 375.69 78.74 369.81 72.83 361.96 70.86 357.06 62.99 351.17 62.99 346.27 65.94 340.39 72.83 330.58 71.85 324.69 74.8 318.81 79.72 311.94 84.64 307.04 87.59 316.85 92.51 321.75 99.4 328.62 102.35 334.43 103.55 324.69 106.29 318.81 101.37 313.91 96.45 308.02 91.53 300.17 89.56 294.29 88.58 286.44 92.51 277.62 96.45 267.81 101.37 261.92 105.3 268.79 109.24 276.64 115.15 268.79 115.15 261.92 111.21 257.02 109.24 249.31 111.14 244.76 111.7 265.4 95.97 265.4 95.97"/>
  <polygon class="cls-5" points="91.76 382.31 92.74 339.02 95.69 294.73 94.7 271.12 95.69 242.58 98.63 216.99 101.57 193.38 105.49 180.58 111.38 162.87 114.32 155 115.3 148.11 118.24 131.38 116.28 115.64 106.47 116.62 96.67 118.59 89.8 115.64 86.86 111.7 80.97 110.72 74.11 113.67 65.28 113.67 60.38 107.76 39.78 117.61 23.11 125.48 10.36 124.49 1.53 126.46 1.53 122.53 13.3 119.57 21.15 119.57 24.09 111.7 36.84 107.76 54.49 101.86 48.61 98.91 40.76 94.97 29.97 97.92 19.19 97.92 10.36 96.94 6.44 92.02 13.3 93 19.19 94.97 23.11 94.97 28.99 94.97 34.88 93 39.78 91.04 44.69 91.04 49.59 94.97 56.45 98.91 69.2 94.97 75.09 92.02 82.94 90.05 88.82 93 93.72 97.92 101.57 103.83 108.44 101.86 114.32 99.89 114.32 92.02 115.3 79.23 116.28 73.32 115.3 65.45 113.34 53.64 111.38 40.85 104.51 31.01 95.69 21.17 84.9 14.28 76.07 11.33 60.38 9.36 37.82 8.38 24.09 8.38 9.38 8.38 .55 9.36 1.04 3.75 105.49 .5 113.34 4.44 122.17 6.41 129.03 4.44 137.86 2.47 232.99 3.46 223.18 10.34 202.59 10.34 168.26 10.34 162.38 24.12 148.65 31.01 132.95 32.98 140.8 50.69 143.74 62.5 146.69 80.21 149.63 91.04 149.63 106.78 145.7 136.3 146.69 141.22 153.55 138.27 165.32 125.48 179.05 112.69 189.84 107.76 195.72 106.78 216.32 93 224.17 86.12 211.42 57.58 200.63 36.91 196.7 22.15 198.67 14.28 207.49 16.25 214.36 15.26 219.26 13.3 220.24 26.09 224.17 39.87 232.01 55.61 237.9 62.5 244.76 68.4 254.57 70.37 259.47 70.37 271.24 64.47 285.95 57.58 292.82 48.72 298.7 41.83 304.59 31.99 305.57 20.18 308.51 6.41 331.07 4.44 326.16 19.2 319.3 41.83 310.47 73.32 296.74 80.21 275.17 86.12 259.47 101.86 244.76 111.7 232.99 130.4 251.63 120.56 263.4 123.51 285.95 116.62 303.61 112.69 320.28 109.73 347.74 101.86 359.51 98.91 385.01 107.76 397.76 112.69 418.36 102.84 423.26 92.02 433.07 79.23 442.88 51.67 442.88 44.79 445.82 31.99 449.74 19.2 448.76 5.42 444.84 2.47 466.41 2.47 459.55 14.28 454.64 37.9 454.64 46.75 464.45 43.8 473.28 37.9 485.05 29.04 498.78 24.12 509.57 12.31 514.47 2.47 536.05 3.46 522.32 14.28 517.41 19.2 517.41 24.12 531.14 28.06 540.95 30.03 550.76 34.95 556.64 44.79 561.55 54.63 571.36 63.48 579.2 66.43 589.99 75.29 592.93 84.15 603.72 88.08 606.66 94.97 600.78 96.94 596.86 90.05 588.03 83.16 580.18 72.34 566.45 64.47 558.61 58.56 547.82 44.79 540.95 37.9 535.07 31.99 523.3 31.01 515.45 29.04 508.59 28.06 499.76 28.06 484.07 40.85 468.38 53.64 460.53 59.55 455.63 76.28 451.7 88.08 437.97 103.83 426.2 114.65 421.65 115.57 411.49 117.61 445.82 114.65 463.47 111.7 480.14 106.78 496.82 97.92 514.47 99.89 521.34 101.86 538.01 101.86 547.82 101.86 556.64 99.89 564.49 98.91 573.32 98.91 579.2 102.84 593.91 101.86 603.72 99.89 613.53 100.88 626.28 101.86 640.01 105.8 654.72 103.83 667.47 103.83 681.2 101.86 686.11 96.94 699.84 89.07 712.59 74.31 719.45 59.55 727.3 44.79 727.3 36.91 738.09 40.85 750.84 40.85 764.57 33.96 777.32 28.06 771.43 38.88 756.72 42.82 739.07 47.74 732.2 48.72 729.26 62.5 716.51 81.2 713.57 86.12 719.45 87.1 737.1 85.13 758.68 85.13 772.41 81.2 774.37 77.26 774.37 91.04 765.55 93 753.78 93 737.1 93 719.45 99.89 702.78 101.86 691.01 107.76 678.26 119.57 658.64 120.56 640.01 122.53 620.39 120.56 602.74 119.57 584.11 118.59 568.41 120.56 553.7 124.49 545.86 119.57 534.09 119.57 523.3 119.57 510.55 120.56 499.76 119.57 482.11 124.49 469.36 133.35 455.63 137.29 441.89 137.29 425.22 134.33 411.49 133.35 393.84 139.25 382.07 150.08 361.47 165.82 336.95 155 319.3 154.02 305.57 154.02 292.82 153.03 271.24 151.06 258.49 159.92 242.8 165.82 230.05 174.68 218.28 170.74 202.59 173.7 180.03 173.7 166.3 172.71 153.55 187.47 153.55 208.14 153.55 222.9 146.69 231.75 146.69 255.37 146.69 270.13 146.69 295.72 143.74 325.24 145.7 408.88 140.8 426.6 89.8 429.55 81.95 419.71 89.8 396.09 91.76 382.31"/>
  <polyline class="cls-7" points="267.32 402.98 266.34 404.95 267.32 406.92 267.32 408.88 266.34 410.85 265.36 415.77 263.4 422.66 262.42 427.58 261.43 432.5 260.45 437.42 260.45 440.37 259.47 442.34 259.47 442.34"/>
  <polyline class="cls-3" points="275.17 408.88 274.18 412.82 272.22 416.76 272.22 420.69 271.24 424.63 271.24 430.53 271.24 434.47 270.26 435.45 278.11 432.5 280.07 431.52 283.01 430.53 285.95 429.55 287.92 428.56 290.86 428.56 290.86 427.58 288.9 427.58"/>
  <polyline class="cls-3" points="321.26 426.6 321.26 428.56 322.24 430.53 324.2 431.52 328.13 430.53 329.11 428.56 327.15 426.6 325.18 426.6"/>
  <polyline class="cls-1" points="331.07 416.26 331.07 414.79 331.07 410.85 330.09 409.87"/>
  <polyline class="cls-1" points="151.59 376.41 151.59 373.46 152.57 370.51 153.55 368.54 154.53 366.57 155.51 365.59 156.89 365.58 154.27 362.48 155.51 360.67 158.45 356.73 159.43 352.79 162.38 349.84 162.38 349.84"/>
  <polyline class="cls-3" points="304.59 444.31 306.55 442.34 308.51 441.36 308.51 438.4 309.49 434.47 308.51 430.53 307.53 427.58 304.59 423.64 302.63 419.71 299.68 417.74 297.72 414.79 294.78 413.8 289.88 411.84 286.93 411.84 283.99 411.84 279.09 413.8 277.13 415.77 274.18 416.76 273.2 418.72 272.31 419.41"/>
  <polyline class="cls-3" points="311.45 441.36 311.45 435.45 311.45 430.53 309.49 427.58 306.55 422.66 305.57 420.69 303.61 418.72 302.63 417.74 300.66 415.77 300.66 413.8 300.66 411.84 297.72 410.85 295.76 410.85 298.7 408.88 300.66 408.88 302.63 410.85 303.61 412.82 305.57 414.79 308.71 417.77"/>
  <polyline class="cls-1" points="236.92 431.52 237.9 427.58 238.88 423.64 239.86 419.71 240.84 415.77 241.82 412.82 242.8 410.85 243.78 407.9 244.76 405.93"/>
  <polyline class="cls-3" points="215.34 427.58 215.34 424.63 216.32 420.69 218.28 416.76 220.24 413.8 221.22 409.87 222.2 406.92 224.17 404.95 225.15 403.96"/>
  <polyline class="cls-3" points="223.18 411.84 225.15 407.9 227.11 404.95 229.07 402.98 231.03 402 232.99 401.01"/>
  <polyline class="cls-3" points="229.07 427.58 231.03 421.68 232.99 417.74 234.95 415.77 236.92 413.8 237.9 412.82"/>
  <polyline class="cls-3" points="188.86 396.09 188.86 392.15 189.84 390.19 190.82 387.23 190.82 383.3 193.76 379.36 194.74 377.39 193.76 383.3 192.78 386.25 193.67 390.75 193.76 391.17 193.76 395.11 193.76 399.04 194.74 401.01"/>
  <polyline class="cls-3" points="197.68 382.31 197.68 383.3 198.67 385.27 199.65 386.25 200.63 385.27 201.61 382.31 203.57 380.35 204.55 381.33 204.55 382.31 204.55 386.25 204.55 389.2 205.53 391.17 206.51 392.15 206.51 393.14 206.51 396.09"/>
  <polyline class="cls-1" points="249.67 405.93 250.65 405.93 252.61 405.93 253.59 407.9 255.55 409.87 257.51 411.84 260.45 413.8 262.42 413.8"/>
  <polyline class="cls-1" points="218.28 384.28 219.26 386.25 220.24 388.22 222.2 390.19 224.17 392.15 225.15 394.12 227.11 395.11 229.07 398.06 231.03 399.04 232.01 400.03 233.97 401.01 234.95 402 236.92 402"/>
  <path class="cls-1" d="M235.93,441.36v-2.95,2.95Z"/>
  <polyline class="cls-6" points="237.9 441.36 238.46 439.48 238.88 441.36 241.82 441.36 241.82 436.44 242.8 441.36 244.76 441.36 245.33 439.62 245.74 441.36 247.7 441.36 247.7 440.37 247.7 439.39 248.69 440.75 248.68 442.34 249.67 442.34 249.67 440.37 250.65 439.39 250.52 441.31 251.63 442.34 253.59 443.33 253.61 441.45 253.61 441.45 254.59 442.58 256.53 443.33 256.53 441.36 256.53 440.37"/>
  <polyline class="cls-8" points="257.51 443.33 259.47 444.31 259.47 442.34 260.45 444.31 262.42 444.31 262.42 443.33 262.97 442.2 263.4 441.36 263.4 440.37 264.13 444.26 264.13 444.26 267.32 445.29 268.76 444.97 268.3 443.33 270.16 445.11 271.24 443.33 271.28 445.39 272.22 446.28 274.18 446.28 274.18 444.31 274.18 443.33 275.17 446.28 276.15 447.26 277.13 445.29 277.13 443.33 278.11 444.31 279.09 445.29 280.07 446.28 283.01 445.29 283.99 444.31 285.59 445.81 285.59 445.81 287.92 446.28 289.1 445.11 289.88 444.31 291.84 444.31 291.84 446.28 292.82 446.28 292.82 444.31 293.8 443.33 294.02 445.81 295.76 446.28 295.76 444.31 296.74 443.33 297.72 443.33 296.74 445.29 296.74 446.28 298.7 446.28 300.66 446.28"/>
  <polyline class="cls-1" points="328.13 410.36 328.13 411.34 327.15 411.84 327.15 412.82 328.13 414.79"/>
  <polygon class="cls-2" points="320.28 408.88 319.3 409.87 319.3 410.85 320.28 410.85 321.26 408.88 320.28 408.88"/>
  <polyline class="cls-1" points="279.09 405.93 278.11 404.95 277.13 406.92 278.11 407.9 279.09 407.9 281.05 408.88 281.05 409.87 280.07 410.85"/>
  <polyline class="cls-9" points="345.78 442.34 344.8 441.36 344.45 439.61 344.45 439.61 343.82 441.36 342.84 442.34 340.88 442.34 340.88 440.37 339.9 438.4 339.9 441.36 338.91 442.34 337.93 442.34 337.76 440.59 338.91 438.4 337.76 440.59 336.95 442.34 335.97 441.36 335.97 439.39 334.99 439.39 334.01 442.34 332.05 442.34 331.07 442.34 330.09 441.36 329.11 442.34 328.13 442.34 326.16 440.37 324.2 439.39 326.16 442.34 324.2 442.34 322.24 442.34 323.22 440.37 321.26 442.34 318.32 442.34 320.28 441.36 315.38 442.34 315.38 440.37 314.4 442.34 312.43 442.34 310.47 442.34 310.47 442.34"/>
</svg>