<?xml version="1.0" encoding="UTF-8"?>
<svg id="Layer_1" data-name="Layer 1" xmlns="http://www.w3.org/2000/svg" viewBox="0 0 307.4 698.95">
  <defs>
    <style>
      .cls-1 {
        fill: none;
        stroke: #000;
        stroke-miterlimit: 10;
        stroke-width: 3px;
      }
    </style>
  </defs>
  <path class="cls-1" d="M292.56,660.2l-15.5-15.6-6.2-26.9-12.6-29.2-.8-19.2-6.8-19.7.4-12.5,3-7-3.4-9.7c-1.7-4.9-6.4-8.1-11.6-7.9l-21.3.8-6.1-13.7,3.3-10.5-1.7-16.3,20.8-5.5,3.2-9.3,10.9-1.7c7.7-1.2,11.5-10,7.2-16.5l-2.6-3.9-16.3-12.7-22.1-15.6-6.9-1.8c-2-.5-2.3-3.3-.4-4.2l7.3-3.4c2.8-1.3,2.9-5.3.1-6.7l-12.7-6.5-2.6-12.2-2.2-17-4.6-7.4c-.8-1.4-1.8-2.6-2.8-3.9h0c-1.6-1.9-4.4-2.5-6.7-1.3l-10.6,5.7-11-5.1,1-3.4c.9-3.2,3.8-5.3,7.1-5.2l7,.2,2-9.4-8.1-10.8-13.7-8.3-10.7-8.7-.9-1.6c-2.2-3.7-1.1-8.5,2.4-11l1.4-1,2.2-11.8-3.6-4.3c-2.3-2.7-2.2-6.7.3-9.2l1.6-1.6,3.5-14.1-1.2-14.3-8.7-10.3-10.6-2.1-3.7-7.3c-1.9-3.6-1.8-8,.2-11.6l2.5-4.6,1.1-5.4c.9-4.6-.3-9.4-3.4-13l-5.6-6.5-8.6-12.7,2.2-11.8-2.1-11.5-2.7-11-6.9-10.8h0c-2.4-3.5-.8-8.3,3.2-9.7l.6-.2,9.6-7,5.5-9.1,2.3-13-1.3-14.4-8.1-10.8-5.6-4.7c-2.6-2.2-6.6-.5-6.8,2.8l-.5,6.2-3.7,8.7-.1,8c0,3.8-4.2,6.1-7.4,4l-7.5-4.8-12.9-3.5-10,5.2-9.8,2.8-1.9,1c-2.5,1.3-5.2-1.4-3.8-3.9h0l-6-7.1-7-9.6v-7.8l8.3-5.9,14.4-7.8,4.4-10.4,5.2-12.2h0c2.2-2.3.6-6.1-2.6-6h-4.7l-10.3,1-12.6.8-9.1,8.8-9.6,7-10.3,8.7-5.6,10.5,2,12.7v14.4l5.4,14.2,11.4,6.9,8.2,9.7-1.4,10.1-1.6,12.4,4.9,5.8,6.7,6.5,3,3.1c3.2,3.3,4.3,8.2,2.8,12.5l-1.4,3.9-2.5,8.8-1.1,20.9,1.2,22.3,7.2,15,2.1,11.5,8.1,16.3-1.9,16,13.6,23.9v14.4l1.1,23.5-1.7,13.6,9.5,15.2,13.2,6.5,13.7,16.1,1.1,15.7,10.4,26.6,5.5,13,4.2,14.1,7.4,4.8,9.8-6.2c3.5-2.2,6-5.6,7-9.5l1.7-6.1c1.2-4.2.6-8.7-1.6-12.5l-10.8-18.6-8.9-15.7-15.9-25.3-16.7-15.7-6.3-7.4c-3.3-3.9-3.3-9.6-.1-13.5l3.7-4.4,1.1-28.7-3.6-9.8c-1.8-4.9.4-10.4,5.1-12.7l3.5-1.6,19.9,5.2,5.2,4.1c2.9,2.3,3.9,6.2,2.5,9.6l-.5,1.1c-1.8,4.3-1.1,9.3,1.9,12.8l8.2,9.6,16.7,15.5c2.1,2,2.2,5.3.2,7.4l-7.5,7.9,7.4,19.2,13.4,11.9,15,13.8,4.8,14.8-1,1c-3.6,3.6-4.1,9.2-1.2,13.4l8.5,12.5,12.9,3.5,15.6,6.7,9.2,7.3c2.4,1.9,2.7,5.3.7,7.6l-3.1,3.6c-2.6,3-6.9,3.7-10.4,1.8l-13-7.2-14-12.5-13.5-10.7-14.9-.6-6.6,7.8-1.2,14.3,2.4,5.4c2.2,4.9,7.3,7.7,12.6,6.9l6.9-1,12.7-2,15.3,10.2-7.5,10.8,4.4,19.5.3,15.8c.1,5.1,2.8,9.8,7.1,12.4l4.4,2.7,10-.6c4-.2,7.6,2.3,8.7,6.2l1.4,5.1-1.3,15.5,8.9,15.7-.4,12.5,5.3,15.4,6.4,16.7,9.3,18.7,1.1,9.1,1.9,13.9,10.7,15.3,6.4,16.7,9.6,14,8.4-1.5c4-.7,6.2-5.1,4.4-8.7l-12.7-26.9h0Z"/>
</svg>