<?xml version="1.0" encoding="UTF-8"?>
<svg id="Layer_1" data-name="Layer 1" xmlns="http://www.w3.org/2000/svg" viewBox="0 0 1152 756">
  <path d="M470.6,690.57l-1.69-21.96,12.67-24.49,9.29-30.4,11.82-15.2,7.6-19.42,8.44-9.29,6.76-3.38,3.64-9.57c1.85-4.86.33-10.35-3.76-13.57l-16.77-13.18,4.22-14.36,9.29-5.91,9.29-13.51,19.42,9.29,8.44-5.07,9.44,5.73c6.65,4.04,15.26-.15,16.18-7.87l.55-4.61-4.22-20.27-6.76-26.18-4.06-5.87c-1.19-1.73.43-4,2.45-3.43l7.75,2.17c2.99.84,5.62-2.14,4.43-5l-5.5-13.2,5.91-10.98,9.29-14.36,1.33-8.62c.24-1.57.36-3.16.36-4.75h0c0-2.54-1.78-4.74-4.27-5.27l-11.77-2.48-5.07-10.98,2.96-1.97c2.73-1.82,6.35-1.55,8.77.66l5.16,4.69,7.6-5.91.84-13.51-5.07-15.2-2.53-13.51.33-1.81c.77-4.24,4.65-7.18,8.93-6.79l1.72.16,9.29-7.6v-5.58c0-3.54,2.69-6.51,6.21-6.86l2.23-.22,11.82-8.44,8.44-11.82v-13.51l-6.76-8.44,1.88-7.98c.94-3.99,3.79-7.26,7.62-8.73l4.86-1.87,4.29-3.39c3.69-2.92,5.85-7.38,5.85-12.09v-8.59s1.69-15.2,1.69-15.2l9.29-7.6,5.91-10.13,5.07-10.13,1.69-12.67h0c.42-4.23,4.78-6.87,8.72-5.29l.56.23,11.82.84,10.13-3.38,10.13-8.44,8.44-11.82.84-13.51-1.2-7.22c-.56-3.34-4.66-4.65-7.05-2.26l-4.41,4.41-8.44,4.22-5.25,6.05c-2.48,2.87-7.16,1.87-8.25-1.77l-2.55-8.51-7.6-10.98-10.98-2.53-9.29-4.22-2.16-.46c-2.79-.6-3.06-4.47-.38-5.45h0v-9.29l.84-11.82,5.07-5.91,10.13.84,16.05,3.38,10.13-5.07,11.82-5.91h0c3.14-.31,4.35-4.26,1.92-6.28l-3.61-3.01-8.44-5.91-10.13-7.6-12.67.84-11.82-.84h-13.51l-10.98,4.22-6.76,10.98-9.29,10.98-5.07,14.36,4.22,12.67v12.67l-7.6,6.76-9.29,8.44v7.6l.84,9.29.31,4.29c.33,4.61-1.99,9.01-5.98,11.34l-3.61,2.11-7.6,5.07-14.36,15.2-13.51,17.73-4.22,16.05-5.91,10.13-4.22,17.73-11.82,10.98-5.07,27.02-9.29,10.98-14.36,18.58-10.13,9.29-2.53,17.73,5.91,13.51v21.11l-9.29,12.67-9.29,27.02-4.22,13.51-5.91,13.51,2.53,8.44,11.45,1.64c4.04.58,8.15-.38,11.52-2.69l5.19-3.55c3.6-2.46,6.06-6.26,6.84-10.54l3.85-21.17,3.38-17.73,4.22-29.56-2.53-22.8v-9.77c0-5.1,3.66-9.46,8.68-10.34l5.68-1,19.42-21.11,3.59-9.86c1.79-4.93,7.06-7.68,12.13-6.33l3.71.99,11.82,16.89,1.31,6.53c.73,3.63-1.07,7.29-4.37,8.94l-1.09.54c-4.18,2.09-6.82,6.36-6.82,11.04v12.64l2.74,22.62c.35,2.88-1.73,5.49-4.62,5.8l-10.79,1.14-6.76,19.42,2.53,17.73,2.53,20.27-5.91,14.36-1.46.12c-5.03.42-9.06,4.35-9.6,9.38l-1.61,14.99,7.6,10.98,7.6,15.2,2.29,11.46c.59,2.96-1.41,5.81-4.39,6.26l-4.7.7c-3.91.59-7.7-1.64-9.09-5.35l-5.22-13.91-2.53-18.58-3.38-16.89-10.98-10.13-10.13,1.69-10.13,10.13-1.68,5.72c-1.5,5.1.58,10.58,5.09,13.4l5.88,3.68,10.98,6.76,5.07,17.73-12.67,3.38-9.29,17.73-10.03,12.25c-3.22,3.94-4.2,9.25-2.59,14.08l1.64,4.91,8.04,6.03c3.19,2.39,4.28,6.69,2.61,10.32l-2.2,4.77-10.98,10.98-3.38,17.73-8.44,9.29-5.91,15.2-5.91,16.89-5.07,20.27-5.07,7.6-7.6,11.82-1.69,18.58-5.91,16.89-1.69,16.89,7.39,4.31c3.51,2.05,8.01.16,9-3.78l7.25-28.82Z" style="fill: none; stroke: #000; stroke-miterlimit: 10; stroke-width: 3px;"/>
</svg>