<?xml version="1.0" encoding="UTF-8"?>
<svg id="Layer_1" data-name="Layer 1" xmlns="http://www.w3.org/2000/svg" viewBox="0 0 307.88 698.67">
  <defs>
    <style>
      .cls-1 {
        fill: none;
        stroke: #000;
        stroke-miterlimit: 10;
        stroke-width: 3px;
      }
    </style>
  </defs>
  <path class="cls-1" d="M292.63,660.11l-15.5-15.65-6.19-26.87-12.6-29.19-.83-19.24-6.78-19.72.42-12.54,2.97-6.95-3.42-9.65c-1.74-4.9-6.45-8.1-11.65-7.91l-21.31.81-6.08-13.68,3.26-10.52-1.66-16.31,20.82-5.49,3.15-9.33,10.9-1.74c7.68-1.22,11.54-9.99,7.24-16.47l-2.56-3.87-16.34-12.72-22.1-15.58-6.89-1.85c-2.03-.55-2.26-3.33-.35-4.2l7.31-3.36c2.82-1.29,2.9-5.27.14-6.68l-12.74-6.5-2.6-12.2-2.21-16.96-4.57-7.43c-.83-1.35-1.77-2.64-2.8-3.85h0c-1.64-1.94-4.42-2.46-6.67-1.25l-10.58,5.73-10.97-5.09.98-3.42c.9-3.15,3.84-5.29,7.11-5.17l6.97.24,1.97-9.42-8.1-10.84-13.7-8.3-10.67-8.66-.92-1.59c-2.16-3.73-1.1-8.48,2.41-10.96l1.41-.99,2.16-11.81-3.61-4.25c-2.29-2.7-2.16-6.7.29-9.25l1.56-1.61,3.55-14.08-1.22-14.47-8.74-10.3-10.62-2.06-3.73-7.3c-1.87-3.65-1.81-7.99.16-11.59l2.49-4.57,1.08-5.36c.92-4.61-.32-9.41-3.37-13l-5.56-6.55-8.55-12.68,2.16-11.81-2.05-11.55-2.69-11-6.91-10.75h0c-2.42-3.5-.8-8.33,3.22-9.68l.58-.19,9.55-7.01,5.53-9.13,2.26-12.99-1.22-14.47-8.1-10.84-5.59-4.73c-2.59-2.18-6.56-.53-6.84,2.84l-.51,6.22-3.7,8.68-.09,8.01c-.03,3.79-4.25,6.06-7.43,3.99l-7.45-4.84-12.9-3.45-10.01,5.18-9.81,2.8-1.94,1.05c-2.52,1.35-5.23-1.43-3.82-3.91h0l-6.01-7.08-7.01-9.55.04-7.79,8.27-5.92,14.42-7.81,4.44-10.42,5.18-12.16h0c2.19-2.27.56-6.06-2.6-6.03l-4.7.04-10.26.96-12.64.76-9.11,8.84-9.55,7.01-10.3,8.74-5.64,10.32,1.95,12.75.03,14.38,5.43,14.23,11.42,6.93,8.2,9.66-1.42,10.07-1.62,12.45,4.92,5.79,6.65,6.54,3.01,3.07c3.24,3.3,4.31,8.16,2.78,12.51l-1.39,3.94-2.51,8.78-1.11,20.88,1.18,22.26,7.17,14.97,2.05,11.55,8.26,16.25-1.9,16.02,13.62,23.88.03,14.38,1.08,23.46-1.71,13.64,9.55,15.15,13.25,6.47,13.66,16.09,1.12,15.67,10.41,26.61,5.53,13.03,4.24,14.12,7.39,4.8,9.79-6.16c3.45-2.17,5.97-5.56,7.04-9.51l1.66-6.07c1.15-4.21.57-8.69-1.61-12.46l-10.77-18.63-8.9-15.7-15.92-25.26-16.69-15.74-6.32-7.45c-3.3-3.89-3.33-9.58-.08-13.5l3.68-4.44,1.14-28.66-3.65-9.84c-1.83-4.92.41-10.42,5.15-12.68l3.47-1.65,19.94,5.22,5.23,4.13c2.91,2.29,3.9,6.25,2.46,9.64l-.48,1.12c-1.83,4.3-1.08,9.26,1.95,12.83l8.18,9.64,16.73,15.47c2.13,1.97,2.23,5.3.23,7.41l-7.49,7.85,7.42,19.18,13.4,11.88,15.05,13.81,4.79,14.77-1.04,1.04c-3.56,3.58-4.09,9.18-1.25,13.36l8.48,12.47,12.9,3.45,15.63,6.67,9.16,7.25c2.37,1.87,2.69,5.34.71,7.61l-3.13,3.58c-2.6,2.98-6.93,3.73-10.39,1.81l-12.98-7.22-13.95-12.53-13.51-10.69-14.93-.61-6.63,7.84-1.17,14.28,2.42,5.45c2.16,4.86,7.29,7.69,12.55,6.92l6.86-1,12.75-1.95,15.34,10.23-7.47,10.78,4.39,19.53.28,15.83c.1,5.09,2.79,9.77,7.14,12.41l4.43,2.68,10.03-.61c3.98-.24,7.59,2.33,8.67,6.18l1.41,5.06-1.26,15.48,8.9,15.7-.42,12.54,5.33,15.41,6.43,16.7,9.26,18.73,1.05,9.07,1.86,13.93,10.74,15.26,6.43,16.7,9.64,13.97,8.42-1.5c4-.71,6.21-5.06,4.41-8.71l-13.13-26.66v-.05Z"/>
</svg>