<?xml version="1.0" encoding="UTF-8"?>
<svg id="Layer_1" data-name="Layer 1" xmlns="http://www.w3.org/2000/svg" viewBox="0 0 523.39 720.97">
  <defs>
    <style>
      .cls-1 {
        fill: none;
        stroke: #000;
        stroke-miterlimit: 10;
        stroke-width: 4px;
      }
    </style>
  </defs>
  <path class="cls-1" d="M9.33,717.77c-3.06,2.9-8.04.18-7.24-3.96l4.34-22.56,6.89-38.58,5.51-48.23,4.13-45.47,6.89-26.18,12.4-13.78-2.76-37.21-2.76-42.72,4.13-28.94v-45.47l6.89-46.85v-41.34l9.65-30.32-8.27-11.02v-12.13c0-7.27,6.65-12.72,13.78-11.3h0s6.89-15.16,6.89-15.16l9.65-31.69v-22.05l11.02-9.65,1.38-20.67,2.76-23.43-13.78-16.54-22.05-15.16,4.13-23.43,8.27-24.8,12.4-6.89,22.05,11.02,28.94,23.43,17.91,11.02h17.91l9.65,9.65,15.16,8.27,15.16,8.27h9.22c8.48,0,16.01,5.43,18.69,13.47l3.78,11.33,30.32,13.78,41.34,20.67,28.94,15.16,31.69,16.54,8.57,1.07c8.5,1.06,16.01,6.02,20.32,13.42l2.8,4.8,24.8,13.78,22.05,15.16,27.56-1.38,20.67-2.76,13.78,15.16v23.43h0c6.37,2.83,8.5,10.83,4.38,16.46l-7.13,9.73-4.13,35.83-22.05,11.02-34.45-16.54-70.28-34.45-27.01-28.09c-3.71-3.86-10.08-3.05-12.71,1.61l-25.04,44.39-10.25,23.29c-2.6,5.91-9.81,8.19-15.33,4.84l-35.05-21.24-22.05-12.4-5.61-1.98c-9.3-3.28-13.39-14.16-8.55-22.75l15.54-27.63,11.23-22.46c3.84-7.67,1.46-17-5.59-21.9l-19.42-13.51-37.21-27.56-12.52-10.44c-6.57-5.48-16.43-4.07-21.21,3.02l-33.78,50.13-22.05,30.32-20.67,24.8-8.27,49.61-11.02,64.76-2.76,49.61-2.76,37.21,1.38,38.58,4.13,28.94-6.89,46.85-9.65,49.61-11.02,55.12v38.58l-17.76,16.87Z"/>
</svg>