<?xml version="1.0" encoding="UTF-8"?>
<svg id="Layer_1" data-name="Layer 1" xmlns="http://www.w3.org/2000/svg" viewBox="0 0 298.74 685.52">
  <defs>
    <style>
      .cls-1 {
        fill: none;
        stroke: #000;
        stroke-miterlimit: 10;
        stroke-width: 3px;
      }
    </style>
  </defs>
  <path class="cls-1" d="M126.48,126.77c.12,4.35-4.81,14.98-6.82,19.13-.54,1.12-.66,2.35-.34,3.53l2.65,9.86c.44,1.62.04,3.33-1.09,4.68l-9.48,11.39c-.97,1.17-1.41,2.61-1.22,4.04l3.51,26.1c.02.11.03.23.06.34l1.29,6.27c1.62,7.89.05,16.01-4.44,23.02l-6.62,10.33c-.32.5-.55,1.03-.69,1.58l-6.34,25.4c-.73,2.93-.76,5.96-.07,8.91l4.33,18.59c.66,2.83,2.33,5.42,4.77,7.4l8.44,6.84c6.71,5.44,9.73,13.45,8,21.24l-2.19,9.85c-.1.44-.25.86-.46,1.27l-9.48,18.31c-.28.53-.46,1.1-.54,1.68l-2.4,17.5c-.02.17-.06.34-.1.51l-5.57,22.96c-.47,1.92-2.04,3.52-4.17,4.23l-7.55,2.52c-7.75,2.59-14.19,7.45-18.17,13.71l-9.15,14.4-12,17.52c-.5.73-1.18,1.36-2,1.84l-18.67,11.02c-.34.2-.66.43-.95.68l-17.61,15.12c-.72.62-1.27,1.36-1.6,2.19l-7.95,19.5c-.31.77-.44,1.59-.36,2.4l2.36,24.31c.05.5.17,1,.37,1.47l18.75,45.09c.06.15.12.3.17.46l4.94,15.91c.06.19.11.39.15.59l7.53,40.92c.05.28.13.56.23.83l4.55,12.5c.98,2.68,4.05,4.38,7.29,4.03l1.98-.21c1.69-.18,3.39.19,4.77,1.04l38.09,23.36c2.59,1.59,6.11,1.41,8.46-.42l28.91-22.42c4.29-3.33,9.75-5.34,15.51-5.72l6.7-.44c.66-.04,1.31-.17,1.93-.38l21.85-7.3c.13-.04.25-.09.37-.14l102.46-40.45c4.16-1.64,5.26-6.28,2.18-9.18l-3.61-3.41c-1.79-1.69-2.26-4.13-1.2-6.22l9.56-18.89c.91-1.79.7-3.86-.54-5.49l-17.73-23.29c-1.23-1.62-1.45-3.65-.57-5.43l6.52-13.29c1.31-2.68.12-5.78-2.8-7.26l-10.15-5.13c-3.45-1.74-4.39-5.66-2.03-8.43l32.94-38.65c.61-.72,1.03-1.55,1.21-2.43l4.48-22.14c.23-1.13.06-2.28-.47-3.33l-22.15-43.33-26.35-53.86c-.3-.61-.48-1.27-.52-1.94l-2.42-38.41c-.05-.75-.26-1.48-.63-2.15l-37.24-68.22c-.32-.59-.53-1.22-.6-1.87l-4.72-39.53c-.17-1.43-.96-2.76-2.2-3.72l-19.43-15.01c-2.41-1.86-2.94-4.94-1.26-7.32l24.51-34.77c1.21-1.72,1.3-3.85.24-5.64l-36.43-61.52c-.1-.17-.22-.34-.34-.51l-33.27-44.43c-.66-.88-1.03-1.9-1.07-2.95l-.03-.8c-.25-6.4-10.62-7.79-13.13-1.76h0c-.53,1.27-.53,2.66,0,3.93l15.3,36.38c.31.73.44,1.51.39,2.29l-1.14,17.69c-.04.56-.17,1.12-.39,1.65l-15.29,36.36c-.61,1.45-.53,3.04.23,4.43,2.41,4.41,7.62,14.41,7.74,18.68Z"/>
</svg>