<?xml version="1.0" encoding="UTF-8"?>
<svg id="Layer_1" data-name="Layer 1" xmlns="http://www.w3.org/2000/svg" viewBox="0 0 1152 756">
  <path d="M407.16,39.7l-21.51-7.17-32.24,5.61-16.14-16.14c-3.47-3.47-9.1-3.47-12.57,0l-14.58,14.58c-4.03,4.03-4.23,10.49-.45,14.76l111.04,125.58,183.64,183.64,161.21,176.63,11.18,7.98c5.23,3.73,8.06,9.98,7.42,16.37l-.37,3.69-6.36,156.37c-.36,8.98,6.41,16.64,15.36,17.39l19.96,1.66c7.85.65,14.62-5.46,14.77-13.34l2.41-130.17c.08-4.37-1.03-8.68-3.21-12.47l-17.69-30.66-117.75-131.77-58.88-56.07-39.25-37.85-102.33-113.55-70.09-68.69-67.16-72.23c-3.98-4.28-3.86-10.95.27-15.09h0c3.23-3.23,7.92-4.53,12.35-3.42l36.76,9.19c3.61.9,7.26-1.32,8.11-4.95l2.14-9.11c1.08-4.61-1.52-9.28-6.01-10.77Z" style="fill: none; stroke: #000; stroke-miterlimit: 10; stroke-width: 3px;"/>
</svg>