<?xml version="1.0" encoding="UTF-8"?>
<svg id="Layer_1" data-name="Layer 1" xmlns="http://www.w3.org/2000/svg" viewBox="0 0 473.97 619.57">
  <defs>
    <style>
      .cls-1 {
        fill: none;
        stroke: #000;
        stroke-miterlimit: 10;
        stroke-width: 5px;
      }
    </style>
  </defs>
  <path class="cls-1" d="M472.74,214.15L100.3,4c-7.03-3.97-15.87.31-17.11,8.29l-26.87,172.53-11.64,74.72-17.3,41.08-3.91,19.54-4.74,23.7v114.58l-8.65,67.02-2.45,25.07-5.07,52.01c-.65,6.64,3.67,12.76,10.14,14.38h0c3.09.77,6.11-1.51,6.2-4.7l1.99-71.62,10.81-56.21v-45.4l2.16-38.91v-38.91l8.65-32.43,6.49-28.1,10.81-36.75,4.32-32.43,8.42-52.23c.83-5.17,7.62-6.57,10.43-2.15l7.09,11.14,25.94,19.46,25.94,8.65,32.43,21.62,34.59,17.3,34.59,19.46,36.75,23.78,21.62,6.49,9.68,9.68c5.84,5.84,7.28,14.75,3.59,22.13l-2.47,4.93-23.78,28.1-12.97,36.75-3.57,8.33c-1.51,3.53.57,7.55,4.32,8.36l23.03,4.93,19.46,19.46,28.1,15.13,34.59,19.46,28.1,10.81,25.94,4.32"/>
</svg>