<?xml version="1.0" encoding="UTF-8"?>
<svg id="Layer_1" data-name="Layer 1" xmlns="http://www.w3.org/2000/svg" viewBox="0 0 588.72 600.38">
  <defs>
    <style>
      .cls-1 {
        fill: none;
        stroke: #000;
        stroke-miterlimit: 10;
        stroke-width: 3px;
      }
    </style>
  </defs>
  <path class="cls-1" d="M576.38,196.33l8.44,34.9c1.53,6.34-5.29,11.43-10.93,8.15l-20.53-11.94c-.25-.14-.5-.27-.76-.39l-31.53-13.74c-.43-.19-.85-.42-1.24-.69l-25.65-17.64c-.32-.22-.66-.42-1.02-.59l-32.64-15.5c-.16-.08-.31-.16-.47-.24l-38.19-21.58-27.56-14.2-31.74-17.54-33.92-20.68c-.21-.13-.43-.25-.66-.36l-39.38-18.87c-.25-.12-.49-.25-.73-.4l-26.37-16.48-39.25-23.38-23.38-13.36-26.73-15.03-7.91-4.58c-4.09-2.37-9.32-.35-10.77,4.15l-4.42,13.75c-.19.59-.3,1.19-.34,1.81l-.65,10.36c-.09,1.36-.54,2.67-1.33,3.79l-4.56,6.51c-2.91,4.16-9.06,4.22-12.05.12l-9.76-13.35-19.86-29.39c-.67-.99-1.57-1.81-2.63-2.38l-9.59-5.16c-4.84-2.61-10.74.78-10.92,6.28l-.44,13.11-.82,28.04c0,.24-.03.48-.06.71l-7.47,58.94-10.78,74.64c-.05.35-.08.7-.08,1.06v19.64c0,1.02-.21,2.03-.62,2.96l-21.46,49.29c-.31.71-.51,1.47-.58,2.25l-4.87,50.35c-.02.18-.03.35-.03.53l-1.66,67.38-2.51,40.09-4.02,58.67c-.1,1.5.25,2.99,1.01,4.28l8.11,13.72c1.01,1.71,1.29,3.76.78,5.68l-7.52,28.19c-.97,3.64-4.52,5.97-8.25,5.42l-6.13-.91c-4.92-.73-9.15,3.5-8.42,8.42l5.08,34.27c.09.63.11,1.27.03,1.9l-1.49,13.37c-.49,4.39,2.95,8.23,7.37,8.23h4.71c3.95,0,7.21-3.1,7.4-7.05l.85-17.43c.24-4.9,5.09-8.22,9.75-6.67h0c3.35,1.12,7.03-.29,8.78-3.35l10.18-17.82c.11-.19.21-.39.3-.59l8.37-18.27c.44-.97.67-2.02.67-3.09v-14.21c0-1.65-.55-3.25-1.56-4.55l-14.72-18.92c-.82-1.06-1.34-2.32-1.51-3.65l-3.85-31.54c-.05-.45-.07-.9-.04-1.35l3.3-54.45,2.49-53.9c.01-.26.04-.51.07-.76l8.87-58.89c.17-1.12.59-2.18,1.23-3.11l20.43-29.51c.75-1.08,1.2-2.34,1.3-3.65l3.07-39.97c.07-.96-.04-1.93-.34-2.84l-7.43-23.02c-.32-.98-.42-2.01-.32-3.03l3.15-30.72c.02-.2.05-.4.09-.59l4.12-22.25,10.73-61.93c.08-.47.12-.95.11-1.43l-.2-8.91c-.17-7.6,9.85-10.5,13.76-3.98l7.21,12.02c.63,1.04,1.5,1.92,2.54,2.54l4.64,2.78c3.49,2.09,4.64,6.61,2.57,10.11l-21.33,36.26-15.24,29.02c-1.39,2.65-1.05,5.89.87,8.19l12.71,15.26c.54.65,1.19,1.2,1.92,1.64l35.64,21.06,38.85,25.63c.27.18.54.33.83.47l33.47,16.33c.23.11.45.23.67.37l30.71,19.11c3.57,2.22,8.28,1.03,10.36-2.63l23.6-41.48c.1-.18.21-.35.32-.51l23.08-33.8c.09-.13.17-.26.25-.39l22.97-38.55c.2-.33.42-.65.67-.95l4-4.8c2.3-2.76,6.25-3.47,9.37-1.69l23.84,13.62,31.4,19.83c.22.14.45.27.69.39l48.92,24.05,49.81,23.24c.2.09.4.2.59.31l51.49,29.9,32.4,17.94c5.58,3.09,12.2-1.85,10.83-8.08l-10.66-48.27Z"/>
</svg>