<?xml version="1.0" encoding="UTF-8"?>
<svg id="Layer_1" data-name="Layer 1" xmlns="http://www.w3.org/2000/svg" viewBox="0 0 559.98 668.88">
  <defs>
    <style>
      .cls-1 {
        fill: none;
        stroke: #000;
        stroke-miterlimit: 10;
        stroke-width: 3px;
      }
    </style>
  </defs>
  <path class="cls-1" d="M547.52,191.33l-13.28-7.59c-4.97-2.84-11.13.86-10.95,6.59l.69,21.98c.19,5.97-6.47,9.64-11.42,6.3l-44.02-29.71c-3.25-2.2-7.66-1.44-9.99,1.73l-13.23,17.95c-2.34,3.18-6.78,3.93-10.04,1.69l-91.79-63.02c-3.21-2.2-7.58-1.51-9.95,1.57l-7.32,9.51c-2.22,2.89-6.24,3.71-9.41,1.91l-128.89-73.04c-2.65-1.5-5.96-1.21-8.3.75l-32.02,26.68c-.73.61-1.34,1.36-1.78,2.2l-12.94,24.44c-.18.34-.33.69-.45,1.05l-16.48,47.94c-.2.59-.33,1.2-.38,1.82l-3.01,39.17-9.17,174.17c-.06,1.1.13,2.21.56,3.23l10.82,25.69c.57,1.35.72,2.84.43,4.28l-1.81,9.05c-.52,2.58-2.37,4.68-4.86,5.51l-9.47,3.16c-2.99,1-5.01,3.79-5.01,6.95v19.16c0,.16,0,.32-.02.48l-4.59,70.42c-.01.2-.03.39-.06.59l-7.63,51.85c-.03.2-.07.4-.11.6l-10.65,45.65c-.05.22-.11.44-.18.65l-3.09,9.27c-.88,2.63-3.17,4.54-5.91,4.93l-2.96.42c-2.13.3-4.29-.35-5.9-1.78l-9.5-8.45c-1.2-1.06-2.71-1.71-4.3-1.83l-30.89-2.38c-3.81-.29-6.76-3.47-6.76-7.3v-6.72c0-4.33,3.74-7.72,8.05-7.29l22.44,2.24c.24.02.49.04.73.04h15.8c.53,0,1.07-.06,1.59-.17l7.36-1.64c3.35-.74,5.73-3.72,5.73-7.15v-25.84c0-.45.04-.9.13-1.35l13.64-72.77c.08-.4.12-.81.12-1.21l1.53-82.69,6.17-91.01,6.17-83.3,1.5-46.56c.03-.84.2-1.66.5-2.44l16.34-41.6c.11-.28.2-.56.28-.85l13.45-52.29c.22-.84.58-1.63,1.07-2.34l11.84-17.1c.85-1.22,1.3-2.68,1.3-4.17v-41.72c0-.48.05-.96.14-1.44l9.54-47.69c.66-3.29,3.47-5.71,6.81-5.88l22.9-1.14c1.47-.07,2.93.3,4.18,1.07l22.25,13.6c2.22,1.36,5,1.43,7.29.2l12.23-6.59c2.51-1.35,5.58-1.12,7.87.59l26.93,20.19c.12.09.24.19.35.28l39.54,33.69c1.25,1.07,2.82,1.68,4.47,1.74l30.05,1.16c4.12.16,7.3,3.69,7.02,7.8l-1.02,15.35c-.01.18-.03.37-.06.55l-2.42,16.92c-.39,2.71.77,5.4,2.99,6.99l39.57,28.26,49.1,33.21c2.08,1.41,4.75,1.65,7.05.64l29.96-13.18c2.92-1.28,6.33-.53,8.44,1.86l14.31,16.21c2.84,3.22,7.84,3.31,10.8.2l19.64-20.67c2.42-2.54,6.3-3.02,9.26-1.12l28.67,18.35c2.82,1.81,4.06,5.3,3,8.48h0c-1.46,4.38-6.57,6.33-10.58,4.04Z"/>
</svg>