<?xml version="1.0" encoding="UTF-8"?>
<svg id="Layer_1" data-name="Layer 1" xmlns="http://www.w3.org/2000/svg" viewBox="0 0 1152 756">
  <path d="M1059.56,650.96l-25.93,11.98c-.38.18-.82.22-1.23.11l-28.26-7.48c-.42-.11-.79-.37-1.03-.73l-25.15-36.48c-.1-.14-.21-.26-.34-.37l-26.49-21.9c-.08-.07-.17-.13-.26-.18l-90.87-51.8s-.07-.04-.11-.06l-105.18-50.64s-.06-.03-.09-.05l-88.55-48.79-101.38-54.73s-.08-.05-.13-.07l-41.94-27.21-63.08-44.8s-.06-.04-.09-.06l-62-38.44c-.06-.04-.13-.07-.19-.1l-35.11-16.26c-.08-.04-.16-.08-.24-.14l-38.64-25.66s-.05-.04-.08-.06l-62.34-46.41-59.17-44.95-75.48-54.29c-.4-.29-.89-.4-1.37-.32l-21.75,3.78c-2.73.47-5.28-1.49-5.52-4.25h0c-.47-5.53,2.34-10.83,7.19-13.53l2.69-1.5c6.23-3.47,13.97-2.68,19.37,1.98l20.2,17.43s.1.08.15.12l85.65,59.14,103.57,75.24s.1.07.15.1l127.26,74.5s.06.04.09.06l93.61,62.81c.07.05.15.09.22.13l101.85,49.1c.07.03.14.07.2.11l104.81,67.99c.07.05.15.09.23.12l80.2,37.13,77.91,38.02s.08.04.12.06l62.53,36.51c.99.58,2.26.11,2.64-.97l3.89-11.21c3.77-10.88,16.11-16.12,26.56-11.28l12.61,5.84,7.27,3.36c8.17,3.78,11.33,13.77,6.83,21.57l-10.9,18.85c-.18.32-.27.68-.24,1.04l1.18,16.05c.07.9.79,1.62,1.69,1.68l20.9,1.46c4.57.32,5.7,6.51,1.55,8.43Z" style="fill: none; stroke: #000; stroke-miterlimit: 10; stroke-width: 3px;"/>
</svg>