<?xml version="1.0" encoding="UTF-8"?>
<svg id="Layer_1" data-name="Layer 1" xmlns="http://www.w3.org/2000/svg" viewBox="0 0 1152 756">
  <path d="M523.94,29.43h-8.68c-7.02,0-12.7,5.62-12.7,12.54v32.7l-19.98,89.46c-1.69,7.55-8.66,12.78-16.48,12.35l-10.81-.59c-1.9-.1-3.68.91-4.54,2.58l-36.75,71.19c-.92,1.79-2.88,2.8-4.89,2.55l-28.93-3.73c-1.75-.22-3.48.51-4.51,1.92l-16.6,22.7c-.98,1.34-2.6,2.08-4.27,1.95l-17.17-1.36c-4.92-.39-7.16,5.94-3.05,8.66l125.57,83.12c1.63,1.08,2.43,3.04,2.02,4.94l-13.77,62.56c-.47,2.15.61,4.34,2.62,5.28l24.37,11.46c2.37,1.11,3.39,3.9,2.3,6.25l-48.42,104.34-25.49,62.93c-1.06,2.63.43,5.58,3.19,6.33l7.39,1.99c2.39.64,4.88-.62,5.75-2.91l15.11-39.8c.93-2.44,3.68-3.68,6.16-2.78l200.03,73.17c1.06.39,1.94,1.13,2.5,2.09l33.63,58.13c1.22,2.11,3.86,2.97,6.11,1.98l7.48-3.28c1.44-.63,3.1-.53,4.45.29l20.79,12.55c2.43,1.47,5.61.53,6.83-2.01l55.41-115.21c.22-.45.36-.94.43-1.43l10.59-82.2s12.22-59.72,12.22-79.93" style="fill: none; stroke: #000; stroke-miterlimit: 10; stroke-width: 3px;"/>
</svg>