<?xml version="1.0" encoding="UTF-8"?>
<svg id="Layer_1" data-name="Layer 1" xmlns="http://www.w3.org/2000/svg" viewBox="0 0 1152 756">
  <path d="M701.96,278.37l17.52-2.43c3.59-.5,6.73-2.67,8.46-5.86l44.96-82.89c.78-1.43,1.24-3.02,1.35-4.64l2.52-35.88c.23-3.3-.98-6.53-3.31-8.87h0c-2.92-2.92-7.18-4.03-11.16-2.92l-18.01,5.07-15.49-6.2c-4.46-1.78-9.55-.59-12.75,2.99l-10.11,11.32c-2.32,2.59-5.69,3.99-9.16,3.79l-38.12-2.18c-5.66-.32-10.69,3.55-11.83,9.1l-11.37,55.57c-.27,1.31-.77,2.57-1.47,3.71l-12.66,20.5c-1.49,2.41-2.03,5.29-1.51,8.07l1.99,10.77c.65,3.49-.37,7.07-2.74,9.71l-44.36,49.29-49.21,44.99c-2.68,2.45-4.03,6.03-3.65,9.64l3.36,31.36c.38,3.57-.94,7.11-3.57,9.56l-27.22,25.36c-1.45,1.36-2.53,3.07-3.12,4.97l-12.06,38.86c-.52,1.68-1.42,3.21-2.63,4.48l-38.14,40.07c-3.1,3.26-4,8.03-2.29,12.18l9.07,22.18c1.2,2.93,3.56,5.23,6.53,6.35l29.73,11.23,4.06-4.4c3.1-3.36,7.9-4.54,12.2-3.01l40.26,14.29,1.1.28c7.2,1.8,14.18-3.65,14.18-11.07v-4.13c0-2.69.95-5.3,2.69-7.36l17.93-21.26,10.26-19.88c1.26-2.45,1.6-5.27.94-7.94l-6.04-24.73c-.85-3.46-.03-7.12,2.22-9.89l15.36-18.95c2.48-3.06,3.21-7.18,1.92-10.9l-2.91-8.45c-1.59-4.61-.07-9.73,3.78-12.73l18.46-14.36c1.7-1.32,2.98-3.09,3.72-5.11l11.1-30.52,7.74-30.26c.44-1.7,1.26-3.28,2.4-4.61l51.97-60.4c1.81-2.1,4.33-3.48,7.08-3.86Z" style="fill: none; stroke: #000; stroke-miterlimit: 10; stroke-width: 3px;"/>
</svg>