<?xml version="1.0" encoding="UTF-8"?>
<svg id="Layer_1" data-name="Layer 1" xmlns="http://www.w3.org/2000/svg" viewBox="0 0 1152 756">
  <path d="M581.01,122.97c-15.36,5.85-54.66,9.48-77.23,11.15-10.68.79-21.41.04-31.87-2.25l-29.77-6.51c-13.13-2.87-26.84-1.35-39.02,4.33l-24.61,11.49c-11.37,5.31-20.05,15.05-24.02,26.95l-14.19,42.56-18.36,61.2-10.2,75.48-3.92,35.3c-1.43,12.86,1.22,25.85,7.56,37.13l8.6,15.29,5.09,8.48c8.71,14.52,20.91,26.64,35.49,35.25l22.67,13.39h0c11.81,9.18,26.63,13.59,41.54,12.35l3.17-.26c14.43-1.2,28.71,3.61,39.47,13.29l23.93,21.54,32.64,42.84,23.87,57.28c4.33,10.4,12.38,18.82,22.57,23.61l39.84,18.75c8.86,4.17,18.87,5.22,28.4,2.97l35.29-8.3c12.21-2.87,22.4-11.22,27.63-22.62l14.16-30.89,46.92-102,132.6-224.39,6.02-13.05c4.08-8.84,5.86-18.56,5.18-28.26l-4.4-63.02c-.46-6.54.4-13.1,2.52-19.3l15.08-44.08c5.11-14.94,2.1-31.46-7.96-43.63l-4.88-5.91c-10.54-12.76-28.12-17.25-43.49-11.1l-4.81,1.92-46.28,26.22c-9.57,5.42-20.87,6.92-31.53,4.18l-46.64-11.99c-5.41-1.39-10.58-3.55-15.37-6.43l-25.81-15.49c-10.94-6.56-24.71-6.11-35.2,1.15l-35.81,24.79s-32.19,25.76-44.88,30.6Z" style="fill: none; stroke: #000; stroke-miterlimit: 10; stroke-width: 9px;"/>
</svg>