<?xml version="1.0" encoding="UTF-8"?>
<svg id="Layer_1" data-name="Layer 1" xmlns="http://www.w3.org/2000/svg" viewBox="0 0 1152 756">
  <path d="M885.06,31.29c10.4,2.09,1.7,42.41,1.7,42.41,0,0-73.04-25.25-89.91-10.18-8.22,7.35,8.26,36.8,0,44.11-13.11,11.61-56.44-20.09-69.55-8.48-3.18,2.81,2.83,13.8,0,16.96-7.68,8.58-36.96-2.3-45.8,5.09-19.36,16.17-28.84,96.7-28.84,96.7l-79.73,218.84-55.98,152.68s-10.69,85.92-33.93,96.7c-14.01,6.49-42.33-20.42-57.68-22.05-5.55-.59-22.05,3.39-22.05,3.39,0,0-6.43,69.44-25.45,74.64-3.77,1.03-10.89-6.39-11.87-10.18-5.23-20.13,16.41-61.36,28.84-78.03,3.8-5.1,14.25-13.47,20.36-15.27,5.71-1.68,18.96,5.23,23.75,1.7,13.65-10.09,3.85-53.6,15.27-66.16,4.51-4.96,20.32-4.16,25.45-8.48,15.09-12.71,37.32-69.55,37.32-69.55,0,0,12.57-19.84,15.27-27.14,9.87-26.77,22.05-111.96,22.05-111.96,0,0,4.16-19.16,8.48-23.75,2.21-2.35,9.68-2.72,11.87-5.09,32.02-34.51,36.15-138.18,61.07-178.12,4.13-6.61,15.62-17.65,22.05-22.05,9.56-6.54,42.41-18.66,42.41-18.66,0,0,30.48-21.45,42.41-23.75,9.66-1.86,39.02,5.09,39.02,5.09,0,0-5.41-26.26,0-32.23,5.72-6.32,33.93-3.39,33.93-3.39l57.68,1.7s4.99-26.83,11.87-25.45Z" style="fill: none; stroke: #000; stroke-miterlimit: 10; stroke-width: 3px;"/>
</svg>