<?xml version="1.0" encoding="UTF-8"?>
<svg id="Layer_1" data-name="Layer 1" xmlns="http://www.w3.org/2000/svg" viewBox="0 0 1152 756">
  <path d="M684.3,110.36l8.32-13.6c.57-.93.87-1.99.87-3.08v-27.71c0-1.4-.5-2.75-1.41-3.83l-12.49-14.69c-.91-1.07-1.41-2.43-1.41-3.83v-14.31c0-1.03-.27-2.04-.79-2.94-2.08-3.59-7.81-12.8-11.47-12.12s-5.49,11.79-5.99,15.4c-.1.76-.35,1.48-.73,2.15l-12.73,22.19c-.31.54-.7,1.03-1.17,1.45l-19.74,17.97c-.66.6-1.18,1.34-1.51,2.16l-8.68,21.28-16.85,43.55-8.43,20.65c-.5,1.21-1.38,2.23-2.53,2.91l-12.91,7.59c-.43.25-.82.55-1.17.9l-20.61,20.2c-.2.2-.39.41-.57.64l-27.16,35.5c-.1.13-.21.26-.32.38l-10.94,12.06c-.75.83-1.72,1.44-2.81,1.75l-24.63,7.24c-2.58.76-4.35,3.09-4.35,5.73v16.98c0,.73-.14,1.45-.4,2.13l-11.47,29.52c-.25.65-.62,1.26-1.09,1.79l-18.75,21.21c-.3.34-.56.72-.78,1.12l-27.25,50.45-19.82,35.87c-.06.11-.13.23-.2.34l-25.75,40.1c-.12.19-.23.38-.33.59l-21.15,42.95c-.1.2-.2.39-.32.57l-30.35,47.6c-.08.12-.15.24-.21.36l-4.68,8.63-20.96,38.68c-.2.37-.36.76-.48,1.16l-8.75,30.03c-.17.59-.44,1.16-.79,1.67l-57.12,83.99c-1.96,2.88-1.02,6.79,2.05,8.51h0c2.83,1.58,6.42.71,8.17-1.98l39.77-61.26,30.07-45.69c.37-.57.65-1.2.81-1.86l6.52-26.84c.55-2.25,2.38-4,4.69-4.47l29.32-5.99c2.24-.46,4.04-2.11,4.64-4.28l12.41-44.59c.26-.94.75-1.8,1.43-2.52l21.7-22.69c.16-.17.34-.33.52-.48l26.13-21.57c1.67-1.38,2.46-3.53,2.07-5.64l-7.97-42.96c-.37-1.99.31-4.02,1.81-5.41l26.5-24.61c.14-.13.27-.26.4-.4l30.87-34.59c.73-.81,1.21-1.8,1.41-2.87l5.64-30.42c.12-.65.35-1.28.68-1.86l12.78-22.28c.33-.58.76-1.1,1.26-1.54l25.59-22.3c.8-.7,1.4-1.58,1.73-2.58l6.9-20.28c.16-.48.39-.95.68-1.38l22.28-33.49c.18-.27.38-.52.6-.76l29.95-32.3c.24-.26.45-.53.64-.83l17.98-27.9c.08-.12.15-.25.22-.38l12.15-22.33,25.4-43.93c.43-.74,1-1.37,1.7-1.87l19.62-14.1c1.46-1.05,3.33-1.41,5.09-.98l6.26,1.54c2.01.49,3.62,1.94,4.29,3.87,2.43,6.99,8.11,23.69,8.11,26.96" style="fill: none; stroke: #000; stroke-miterlimit: 10; stroke-width: 3px;"/>
</svg>