<?xml version="1.0" encoding="UTF-8"?>
<svg id="Layer_1" data-name="Layer 1" xmlns="http://www.w3.org/2000/svg" viewBox="0 0 1152 756">
  <path d="M685.78,317.63l-23.25,40.68c-.05.1-.11.19-.18.28l-40.21,57.22c-.17.25-.38.47-.61.66l-19,16.07c-.61.51-1.02,1.22-1.18,2l-4.39,21.95c-1.05,5.25-3.63,10.07-7.41,13.85l-26.7,26.7c-.17.17-.33.36-.46.57l-23.13,35.47c-.04.07-.09.14-.14.2l-48.23,63.79c-.04.05-.08.1-.12.15l-76.27,90.28c-.08.09-.16.18-.24.26l-39.81,38.56c-2.63,2.55-6.92-.1-5.82-3.59l12.73-40.51c.17-.54.47-1.04.87-1.44l18.64-18.64c.66-.66,1.03-1.56,1.03-2.49v-20.87c0-.7.21-1.38.59-1.96l11.64-17.46c.16-.24.36-.47.58-.67l14.87-13.39c.26-.24.49-.52.67-.82l29.37-49.46,16.91-26.14c.16-.25.36-.49.58-.69l34.47-31.47c.69-.63,1.1-1.51,1.15-2.44l1.39-29.19c.06-1.3.84-2.47,2.02-3.02l22.73-10.7c1.15-.54,1.93-1.67,2.02-2.94l1.32-18.51c.06-.82.4-1.6.97-2.19l36.1-37.61c.3-.31.54-.68.71-1.09l22.83-54.8c.21-.5.53-.94.93-1.3l36.05-31.54c.51-.44.88-1.02,1.06-1.67l10.45-35.84c.12-.41.31-.79.56-1.13l41.74-55.65,20.15-27.9c.09-.12.18-.23.28-.34l20.89-22.38c.52-.56.85-1.28.93-2.04l2.87-27.23c.08-.8.44-1.55,1.01-2.13l27.2-27.2,34.12-35.67c.14-.14.29-.28.45-.4l37.48-27.76c2.06-1.53,5.01-.41,5.55,2.1l3.33,15.54c.13.62.1,1.26-.1,1.86l-7.15,21.44c-.23.68-.24,1.42-.04,2.11l6.99,23.76c.31,1.07.11,2.22-.56,3.11l-12.63,16.84c-.23.31-.51.58-.83.79l-28.71,19.65c-.3.2-.56.45-.79.74l-27.4,35.01c-.23.29-.41.62-.54.97l-18.32,50.37c-.14.39-.35.75-.61,1.06l-39.25,46.8c-.58.7-.88,1.59-.82,2.5l1.36,20.4c.07,1.01.56,1.94,1.36,2.56l32.77,25.32c.2.15.41.28.64.39l26.21,12.54c3.04,1.45,2.51,5.93-.78,6.63l-10.13,2.17c-1.01.22-2.07-.02-2.89-.65l-45.33-34.75c-.12-.09-.24-.2-.35-.31h0c-10.13-10.13-27.12-7.86-34.23,4.58Z" style="fill: none; stroke: #000; stroke-miterlimit: 10; stroke-width: 3px;"/>
</svg>