<?xml version="1.0" encoding="UTF-8"?>
<svg id="Layer_1" data-name="Layer 1" xmlns="http://www.w3.org/2000/svg" viewBox="0 0 304.33 679.36">
  <defs>
    <style>
      .cls-1 {
        fill: none;
        stroke: #000;
        stroke-miterlimit: 10;
        stroke-width: 3px;
      }
    </style>
  </defs>
  <path class="cls-1" d="M119.38,117.33l31.28,29.63c1.32,1.25,1.71,3.19.99,4.85l-22.9,52.85c-.13.3-.23.62-.29.94l-11.04,60.74c-.05.3-.08.61-.07.92l1.83,54.88c.02.48.11.96.29,1.41l22.02,56.88c.1.25.22.5.37.73h0c.79,1.26,10.38-15.45,11.87-15.45l12.12-10.1c1.86,0,13.56-11.86,14.14-10.1l24.25,20.2c.17.51,20.23,15.62,20.2,16.16l14.14,12.12c-.04.75,21.89,11.45,22.23,12.12l28.29,28.29c.3.61-16.71,66.27-16.16,66.68l29.86,68.37c.9.67-14.55,34.02-14.37,35.13l-12.34,42.79c.08.49.24.96.48,1.39l2.42,15.99c1.12,2.01-8.15-1.22-10.1,0h0c-1.97,1.23-8.1,1.26-9.4-.66h0c-1.15-1.69-3.32-2.34-5.2-1.57l-36.74,15.03c-.75.31-1.57.4-2.36.26l-63.1-10.82c-.72-.12-1.4-.43-1.97-.88l-33.61-26.89c-1.67-1.34-4.07-1.25-5.63.21h0c3.44-.4,5.73,3.64-9.99-14.92-.72-.85-.42-2.03-1.32-1.37h0c-1.22-.44-14.11-13.73-14.53-14.96l-16.16-24.25c-.44-1.26-8.8-11.01-8.08-12.12l-6.06-16.16c.25-.38-6.42-9.82-6.06-10.1l3.33-28.69c1.12-.91,1.72-2.31,1.59-3.75l-3.41-37.51c-.08-.86-.41-1.67-.95-2.34l-39.27-48.19c-.66-.81-1-1.82-.97-2.86l1.8-57.75c0-.3-.01-.6-.07-.89l-9.15-51.24c-.08-.43-.09-.87-.03-1.31l11.11-87.06c.01-.09.02-.18.03-.28l1.81-28.95c.03-.54.17-1.07.4-1.56l27.27-58.17c.28-.59.68-1.11,1.19-1.52l28.5-23.16c.42-.34.77-.76,1.04-1.23l15.72-27.95c.45-.81.64-1.73.52-2.65l-4.87-38.93c-.31-2.45,1.51-4.66,3.98-4.84l18.89-1.35c1.67-.12,3.12-1.19,3.72-2.76L121.97,1.68c1.64-4.25,110.13,68.54,110.56,73.08l-52.53,16.16c.06.63-15.95,5.47-16.16,6.06l-45.54,15.76c-.58,1.61-.15,3.41,1.1,4.59Z"/>
</svg>