<?xml version="1.0" encoding="UTF-8"?>
<svg id="Layer_1" data-name="Layer 1" xmlns="http://www.w3.org/2000/svg" viewBox="0 0 1152 756">
  <path d="M520.88,142.52l31.28,29.63c1.32,1.25,1.71,3.19.99,4.85l-22.9,52.85c-.13.3-.23.62-.29.94l-11.04,60.74c-.05.3-.08.61-.07.92l1.83,54.88c.02.48.11.96.29,1.41l22.02,56.88c.1.25.22.5.37.73l17.21,27.53c.79,1.26,2.17,2.03,3.66,2.03h16.93c1.86,0,3.51,1.19,4.09,2.95l8.1,24.31c.17.51.24,1.05.22,1.59l-1.77,33.56c-.04.75.12,1.49.45,2.16l8.38,16.75c.3.61.74,1.13,1.29,1.54l55.72,41.34c.9.67,1.5,1.65,1.69,2.76l18.28,109.69c.08.49.24.96.48,1.39l25.68,46.23c1.12,2.01.46,4.54-1.49,5.76l-7.95,4.97c-1.97,1.23-4.55.68-5.86-1.23l-27.47-40.4c-1.15-1.69-3.32-2.34-5.2-1.57l-36.74,15.03c-.75.31-1.57.4-2.36.26l-63.1-10.82c-.72-.12-1.4-.43-1.97-.88l-33.61-26.89c-1.67-1.34-4.07-1.25-5.63.21l-21.51,19.97c-1.18,1.1-2.88,1.45-4.41.9l-83.44-30.18c-1.22-.44-2.18-1.41-2.61-2.64l-13.58-39.06c-.44-1.26-.27-2.65.45-3.76l19.04-29.43c.25-.38.56-.73.91-1.01l46.27-37.37c1.12-.91,1.72-2.31,1.59-3.75l-3.41-37.51c-.08-.86-.41-1.67-.95-2.34l-39.27-48.19c-.66-.81-1-1.82-.97-2.86l1.8-57.75c0-.3-.01-.6-.07-.89l-9.15-51.24c-.08-.43-.09-.87-.03-1.31l11.11-87.06c.01-.09.02-.18.03-.28l1.81-28.95c.03-.54.17-1.07.4-1.56l27.27-58.17c.28-.59.68-1.11,1.19-1.52l28.5-23.16c.42-.34.77-.76,1.04-1.23l15.72-27.95c.45-.81.64-1.73.52-2.65l-4.87-38.93c-.31-2.45,1.51-4.66,3.98-4.84l18.89-1.35c1.67-.12,3.12-1.19,3.72-2.76l11.12-28.91c1.64-4.25,7.89-3.4,8.33,1.14l5.65,59.28c.06.63-.02,1.27-.23,1.86l-17.42,48.78c-.58,1.61-.15,3.41,1.1,4.59Z" style="fill: none; stroke: #000; stroke-miterlimit: 10; stroke-width: 3px;"/>
</svg>