<?xml version="1.0" encoding="UTF-8"?>
<svg id="Layer_1" data-name="Layer 1" xmlns="http://www.w3.org/2000/svg" viewBox="0 0 600.75 720.12">
  <defs>
    <style>
      .cls-1 {
        fill: none;
        stroke: #000;
        stroke-miterlimit: 10;
        stroke-width: 3px;
      }
    </style>
  </defs>
  <path class="cls-1" d="M175.62,262.96l-13.97-8.65c-5.31-3.29-6.99-10.23-3.78-15.58l1.63-2.72c3.3-5.49,1.64-12.61-3.75-16.08l-47.56-30.65c-5.31-3.42-7.01-10.41-3.87-15.89l46.27-80.64,3.08-9.25c1.65-4.94-.48-10.36-5.04-12.86l-38.06-20.87,18.76-29.31c2.67-4.17,1.21-9.73-3.17-12.04l-11.59-6.14c-3.07-1.62-6.87-.55-8.64,2.44l-13.63,23.07c-1.56,2.65-1.79,5.87-.61,8.71l3.3,7.91c1.42,3.4,1.24,7.26-.48,10.52L2.89,228.57c-2.84,5.38-1.2,12.04,3.81,15.48l125.86,86.53c4.49,3.09,6.3,8.84,4.39,13.94l-55.59,148.23c-1.91,5.08.54,10.76,5.54,12.88l502.35,212.42c3.97,1.68,8.51-.53,9.65-4.69h0c1.32-4.83-1.15-9.89-5.77-11.83L107.92,498.3c-5.17-2.17-7.74-7.99-5.87-13.27l51.5-144.75,26.28-64.38c1.94-4.76.16-10.24-4.21-12.94Z"/>
</svg>