<?xml version="1.0" encoding="UTF-8"?>
<svg id="Layer_1" data-name="Layer 1" xmlns="http://www.w3.org/2000/svg" viewBox="0 0 1152 756">
  <path d="M587.84,467.11l-41.41,76.69c-1.15,2.14-2.83,3.95-4.86,5.27l-26.55,17.26c-3.53,2.29-5.89,6.01-6.47,10.17l-7.75,55.82c-.09.66-.14,1.33-.14,2v16.3c0,6.44-4.24,12.11-10.42,13.93l-14.45,4.25c-3.27.96-6.09,3.04-7.98,5.87l-15.92,23.88c-3.47,5.2-3.22,12.03.62,16.97h0c7.42,9.54.62,23.43-11.46,23.43h-5.62c-2.25,0-4.48-.52-6.49-1.53l-37.33-18.66c-3.44-1.72-7.43-2.01-11.08-.79l-21.94,7.31c-5.63,1.88-11.84.14-15.67-4.39l-17.67-20.88c-6.86-8.1-2.98-20.59,7.26-23.38l2.09-.57c7.99-2.18,12.54-10.58,10-18.46l-11.69-36.23c-.82-2.54-.92-5.25-.3-7.84l7.45-31.02c1.32-5.5,5.72-9.74,11.27-10.85l24.84-4.97c6.04-1.21,10.65-6.09,11.52-12.18l2.99-20.94c.54-3.76,2.53-7.16,5.54-9.47l41.89-32.12c3.88-2.98,6.01-7.71,5.64-12.59l-2.37-32.04c-.36-4.8,1.69-9.46,5.46-12.45l42.05-33.35c1.95-1.55,3.47-3.57,4.42-5.88l11.15-27.25c2.01-4.91,1.18-10.53-2.17-14.65l-13.62-16.77c-2.45-3.02-3.59-6.89-3.16-10.76l3.95-35.58c.42-3.79,2.32-7.26,5.27-9.66l22.88-18.59c.45-.36.92-.7,1.4-1.01l30.96-19.55c1.17-.74,2.44-1.3,3.76-1.68l12.12-3.46c6.23-1.78,10.53-7.48,10.53-13.96v-24.26l1.64-73.95c.08-3.4,1.35-6.67,3.59-9.24l16.84-19.24c2.76-3.15,6.74-4.96,10.93-4.96h23.1c1.33,0,2.65-.18,3.93-.54l48.08-13.52c4.02-1.13,7.36-3.94,9.17-7.71l14.38-30.07c1.39-2.91,3.72-5.28,6.6-6.72l27.33-13.66c2.25-1.12,4.75-1.64,7.26-1.51l24.96,1.31c3.03.16,5.94,1.27,8.31,3.16l17.77,14.22c3.18,2.54,5.15,6.31,5.42,10.37l1.2,17.98c.09,1.36-.01,2.72-.3,4.05l-8.04,36.96c-.22,1.01-.33,2.05-.33,3.08v19.13c0,8.02-6.5,14.52-14.52,14.52h-15.06c-5.59,0-10.68,3.21-13.1,8.25l-15.19,31.76c-.15.32-.29.64-.42.97l-13.37,34.18c-1.45,3.71-1.31,7.86.38,11.47l10.51,22.34c.6,1.28,1.02,2.65,1.23,4.05l6.16,41.58c.37,2.51.08,5.08-.85,7.45l-20.79,52.76c-.45,1.14-1.04,2.22-1.77,3.22l-40.32,55.44c-.56.77-1.04,1.59-1.44,2.46l-16.4,35.54c-2.49,5.39-8.01,8.73-13.94,8.41l-47.9-2.52c-5.6-.29-10.87,2.66-13.54,7.6Z" style="fill: none; stroke: #000; stroke-miterlimit: 10; stroke-width: 9px;"/>
</svg>