<?xml version="1.0" encoding="UTF-8"?>
<svg id="Layer_1" data-name="Layer 1" xmlns="http://www.w3.org/2000/svg" viewBox="0 0 691.81 347.06">
  <defs>
    <style>
      .cls-1 {
        fill: none;
        stroke: #000;
        stroke-miterlimit: 10;
        stroke-width: 3px;
      }
    </style>
  </defs>
  <path class="cls-1" d="M683.67,20.54l-5.71-4.33-40.32,7.2-26.71-2.53c-2.55-.24-5.12-.09-7.62.46l-85.62,18.58c-5.54,1.2-11.15-1.67-13.43-6.86l-12.53-28.61c-1.93-4.4-8.37-3.73-9.34.97l-3.01,14.45c-1.24,5.95-4.76,11.18-9.8,14.57l-199.04,133.67-24.15-6.56c-4.47-1.21-9.24-.6-13.26,1.69l-17.95,10.25c-4.61,2.63-7.98,6.98-9.39,12.09l-1.26,4.58c-1.01,3.67-3.29,6.86-6.42,9.02L1.61,334.25l1.04,7.82c.4,3.02,3.88,4.51,6.34,2.72l53.65-38.9,144.64-97.51,20.51-18.98,3.54-1.46c9.37-3.88,20.18-.89,26.23,7.25l3.8,5.11c2,2.7,5.69,3.5,8.64,1.88l81.96-45.08,37.13-21.98c9.37-5.55,19.71-9.27,30.47-10.98l22.84-3.62,80.63-14.39,60.78-14.07,49.47-6.29c3.36-.43,6.56-1.71,9.28-3.73l19.53-14.49,22.89-21.4c7.6-7.1,6.97-19.34-1.32-25.62Z"/>
</svg>