<?xml version="1.0" encoding="UTF-8"?>
<svg id="Layer_1" data-name="Layer 1" xmlns="http://www.w3.org/2000/svg" viewBox="0 0 1152 756">
  <path d="M661.02,10.7l-6.97,1.64-20.15,35.65-18.97,18.97c-1.81,1.81-3.33,3.89-4.5,6.16l-40.25,77.82c-2.6,5.03-8.39,7.53-13.84,5.98l-30.03-8.58c-4.62-1.32-8.21,4.07-5.21,7.82l9.22,11.53c3.8,4.75,5.59,10.79,4.98,16.84l-23.86,238.57-20.44,14.43c-3.78,2.67-6.35,6.73-7.15,11.29l-3.54,20.37c-.91,5.22.29,10.6,3.33,14.94l2.72,3.89c2.18,3.12,3.19,6.91,2.86,10.7l-21.18,237.49,6.69,4.18c2.58,1.61,5.95-.12,6.14-3.15l4.22-66.13,17.05-173.61-1.55-27.9,1.13-3.66c2.98-9.69,12.18-16.12,22.31-15.59l6.36.33c3.36.18,6.33-2.15,6.96-5.46l17.5-91.89,6.73-42.62c1.7-10.76,5.42-21.1,10.96-30.48l11.76-19.91,40.3-71.3,27.9-55.8,26.68-42.13c1.81-2.86,2.86-6.15,3.04-9.53l1.28-24.29-1.9-31.28c-.63-10.38-10.46-17.7-20.58-15.31Z" style="fill: none; stroke: #000; stroke-miterlimit: 10; stroke-width: 3px;"/>
</svg>